<?xml version="1.0" encoding="UTF-8"?>
<svg version="1.1" xmlns="http://www.w3.org/2000/svg" width="512" height="512">
<path d="M0 0 C0.76031851 -0.00350607 1.52063702 -0.00701215 2.30399549 -0.01062447 C4.8544408 -0.01993624 7.40465766 -0.01501573 9.95511246 -0.01015663 C11.80107632 -0.013893 13.6470386 -0.01849447 15.49299836 -0.02388728 C20.56805931 -0.03613432 25.64305442 -0.0358548 30.71812677 -0.03349853 C36.19066671 -0.03309079 41.66318541 -0.04412539 47.13571548 -0.05361366 C57.85852715 -0.07023409 68.58131683 -0.07572368 79.3041403 -0.07683842 C88.01959052 -0.07778842 96.73503349 -0.0818963 105.45048141 -0.08823967 C126.13484405 -0.10298817 146.81920186 -0.11528909 167.50357056 -0.11424255 C168.16504367 -0.1142114 168.82651679 -0.11418024 169.50803454 -0.11414814 C172.86062404 -0.11398192 176.21321353 -0.11378384 179.56580302 -0.11357872 C180.56454946 -0.11351889 180.56454946 -0.11351889 181.58347259 -0.11345784 C182.92994534 -0.11337697 184.2764181 -0.11329337 185.62289085 -0.11320706 C206.56929147 -0.1119817 227.51562734 -0.12699207 248.46200943 -0.15435219 C271.99782184 -0.18508198 295.53360198 -0.2022588 319.06943727 -0.20042574 C331.53011532 -0.19976152 343.99072035 -0.20526819 356.45138168 -0.22678185 C367.06068555 -0.24498154 377.66988328 -0.24935091 388.27919599 -0.235763 C393.6920631 -0.22922723 399.10472651 -0.22913829 404.51757431 -0.2464695 C409.47464922 -0.26217811 414.43135855 -0.25935902 419.38842443 -0.24190123 C421.17979904 -0.23882648 422.97120079 -0.2424816 424.76254341 -0.25362138 C436.46410784 -0.32155865 446.77333985 0.15924813 455.76181412 8.55414391 C461.56009186 15.00324874 464.53927365 21.99984288 464.55033302 30.71481514 C464.55678192 32.00248401 464.56323081 33.29015289 464.56987512 34.61684203 C464.56693309 36.03863104 464.56379767 37.46041966 464.56048965 38.88220787 C464.56422717 40.39818811 464.5688291 41.91416643 464.5742203 43.43014169 C464.58645327 47.59308074 464.58618948 51.75593945 464.58383155 55.91889238 C464.58342346 60.40983029 464.59446184 64.90074242 464.60394669 69.39166832 C464.62055949 78.1894033 464.62605637 86.98711147 464.62717144 95.78486082 C464.62812182 102.93661964 464.63223161 110.08836963 464.63857269 117.24012566 C464.65618618 137.51823508 464.66541144 157.79632333 464.66391174 178.07444045 C464.66383183 179.16763517 464.66375192 180.26082989 464.66366959 181.38715172 C464.66358782 182.48168184 464.66350606 183.57621196 464.66342182 184.70390967 C464.66260898 202.44095766 464.6817459 220.17792072 464.70994632 237.91494414 C464.73867615 256.12872831 464.75248655 274.34247106 464.75075877 292.55627847 C464.75009488 302.78130889 464.75558655 313.00625029 464.77711487 323.2312603 C464.79532799 331.93748555 464.79967294 340.64358143 464.78609602 349.34981748 C464.77956693 353.79057295 464.77944699 358.23108022 464.79680252 362.67181206 C464.81254105 366.74071099 464.80966182 370.80916508 464.79223426 374.87805322 C464.78916606 376.34641553 464.79279001 377.81481111 464.80395441 379.28313419 C464.88156374 390.21842294 463.69843584 399.47916888 455.99618912 407.72601891 C449.11202207 413.9154535 441.82672062 416.56879192 432.58612823 416.51453781 C431.82580972 416.51804389 431.06549121 416.52154996 430.28213274 416.52516228 C427.73168743 416.53447405 425.18147057 416.52955355 422.63101578 416.52469444 C420.78505192 416.52843082 418.93908964 416.53303228 417.09312987 416.53842509 C412.01806893 416.55067214 406.94307382 416.55039261 401.86800146 416.54803634 C396.39546153 416.5476286 390.92294282 416.55866321 385.45041275 416.56815147 C374.72760108 416.5847719 364.0048114 416.5902615 353.28198794 416.59137623 C344.56653771 416.59232623 335.85109475 416.59643411 327.13564682 416.60277748 C306.45128418 416.61752598 285.76692637 416.6298269 265.08255768 416.62878036 C264.42108456 416.62874921 263.75961145 416.62871805 263.07809369 416.62868595 C259.7255042 416.62851973 256.37291471 416.62832165 253.02032521 416.62811653 C252.02157878 416.6280567 252.02157878 416.6280567 251.00265564 416.62799565 C249.65618289 416.62791478 248.30971014 416.62783118 246.96323739 416.62774487 C226.01683676 416.62651951 205.0705009 416.64152988 184.1241188 416.66889 C160.5883064 416.69961979 137.05252625 416.71679661 113.51669097 416.71496356 C101.05601291 416.71429933 88.59540788 416.719806 76.13474655 416.74131966 C65.52544268 416.75951935 54.91624495 416.76388872 44.30693224 416.75030081 C38.89406514 416.74376504 33.48140173 416.7436761 28.06855392 416.76100731 C23.11147901 416.77671592 18.15476969 416.77389683 13.19770381 416.75643905 C11.40632919 416.75336429 9.61492744 416.75701941 7.82358482 416.7681592 C-3.8779796 416.83609646 -14.18721161 416.35528968 -23.17568588 407.96039391 C-28.97396363 401.51128907 -31.95314542 394.51469493 -31.96420479 385.79972267 C-31.97065368 384.5120538 -31.97710257 383.22438492 -31.98374689 381.89769578 C-31.98080485 380.47590677 -31.97766943 379.05411815 -31.97436142 377.63232994 C-31.97809894 376.1163497 -31.98270087 374.60037139 -31.98809206 373.08439612 C-32.00032504 368.92145707 -32.00006125 364.75859836 -31.99770331 360.59564543 C-31.99729522 356.10470752 -32.00833361 351.61379539 -32.01781845 347.12286949 C-32.03443126 338.32513452 -32.03992813 329.52742634 -32.04104321 320.72967699 C-32.04199359 313.57791817 -32.04610338 306.42616818 -32.05244446 299.27441216 C-32.07005795 278.99630274 -32.07928321 258.71821449 -32.07778351 238.44009736 C-32.0777036 237.34690264 -32.07762369 236.25370792 -32.07754135 235.12738609 C-32.07745959 234.03285597 -32.07737783 232.93832585 -32.07729359 231.81062815 C-32.07648075 214.07358015 -32.09561766 196.3366171 -32.12381808 178.59959367 C-32.15254791 160.3858095 -32.16635831 142.17206675 -32.16463053 123.95825934 C-32.16396665 113.73322892 -32.16945831 103.50828752 -32.19098663 93.28327751 C-32.20919975 84.57705226 -32.2135447 75.87095638 -32.19996779 67.16472033 C-32.1934387 62.72396486 -32.19331875 58.2834576 -32.21067429 53.84272575 C-32.22641281 49.77382682 -32.22353359 45.70537273 -32.20610602 41.63648459 C-32.20303782 40.16812228 -32.20666178 38.6997267 -32.21782617 37.23140362 C-32.29543551 26.29611487 -31.1123076 17.03536893 -23.41006088 8.78851891 C-16.52589383 2.59908431 -9.24059238 -0.05425411 0 0 Z " fill="#EAF6FD" transform="translate(39.70693588256836,47.74273109436035)"/>
<path d="M0 0 C0.76031851 -0.00350607 1.52063702 -0.00701215 2.30399549 -0.01062447 C4.8544408 -0.01993624 7.40465766 -0.01501573 9.95511246 -0.01015663 C11.80107632 -0.013893 13.6470386 -0.01849447 15.49299836 -0.02388728 C20.56805931 -0.03613432 25.64305442 -0.0358548 30.71812677 -0.03349853 C36.19066671 -0.03309079 41.66318541 -0.04412539 47.13571548 -0.05361366 C57.85852715 -0.07023409 68.58131683 -0.07572368 79.3041403 -0.07683842 C88.01959052 -0.07778842 96.73503349 -0.0818963 105.45048141 -0.08823967 C126.13484405 -0.10298817 146.81920186 -0.11528909 167.50357056 -0.11424255 C168.16504367 -0.1142114 168.82651679 -0.11418024 169.50803454 -0.11414814 C172.86062404 -0.11398192 176.21321353 -0.11378384 179.56580302 -0.11357872 C180.56454946 -0.11351889 180.56454946 -0.11351889 181.58347259 -0.11345784 C182.92994534 -0.11337697 184.2764181 -0.11329337 185.62289085 -0.11320706 C206.56929147 -0.1119817 227.51562734 -0.12699207 248.46200943 -0.15435219 C271.99782184 -0.18508198 295.53360198 -0.2022588 319.06943727 -0.20042574 C331.53011532 -0.19976152 343.99072035 -0.20526819 356.45138168 -0.22678185 C367.06068555 -0.24498154 377.66988328 -0.24935091 388.27919599 -0.235763 C393.6920631 -0.22922723 399.10472651 -0.22913829 404.51757431 -0.2464695 C409.47464922 -0.26217811 414.43135855 -0.25935902 419.38842443 -0.24190123 C421.17979904 -0.23882648 422.97120079 -0.2424816 424.76254341 -0.25362138 C436.46410784 -0.32155865 446.77333985 0.15924813 455.76181412 8.55414391 C461.56009186 15.00324874 464.53927365 21.99984288 464.55033302 30.71481514 C464.55678192 32.00248401 464.56323081 33.29015289 464.56987512 34.61684203 C464.56693309 36.03863104 464.56379767 37.46041966 464.56048965 38.88220787 C464.56422717 40.39818811 464.5688291 41.91416643 464.5742203 43.43014169 C464.58645327 47.59308074 464.58618948 51.75593945 464.58383155 55.91889238 C464.58342346 60.40983029 464.59446184 64.90074242 464.60394669 69.39166832 C464.62055949 78.1894033 464.62605637 86.98711147 464.62717144 95.78486082 C464.62812182 102.93661964 464.63223161 110.08836963 464.63857269 117.24012566 C464.65618618 137.51823508 464.66541144 157.79632333 464.66391174 178.07444045 C464.66383183 179.16763517 464.66375192 180.26082989 464.66366959 181.38715172 C464.66358782 182.48168184 464.66350606 183.57621196 464.66342182 184.70390967 C464.66260898 202.44095766 464.6817459 220.17792072 464.70994632 237.91494414 C464.73867615 256.12872831 464.75248655 274.34247106 464.75075877 292.55627847 C464.75009488 302.78130889 464.75558655 313.00625029 464.77711487 323.2312603 C464.79532799 331.93748555 464.79967294 340.64358143 464.78609602 349.34981748 C464.77956693 353.79057295 464.77944699 358.23108022 464.79680252 362.67181206 C464.81254105 366.74071099 464.80966182 370.80916508 464.79223426 374.87805322 C464.78916606 376.34641553 464.79279001 377.81481111 464.80395441 379.28313419 C464.88156374 390.21842294 463.69843584 399.47916888 455.99618912 407.72601891 C449.11202207 413.9154535 441.82672062 416.56879192 432.58612823 416.51453781 C431.82580972 416.51804389 431.06549121 416.52154996 430.28213274 416.52516228 C427.73168743 416.53447405 425.18147057 416.52955355 422.63101578 416.52469444 C420.78505192 416.52843082 418.93908964 416.53303228 417.09312987 416.53842509 C412.01806893 416.55067214 406.94307382 416.55039261 401.86800146 416.54803634 C396.39546153 416.5476286 390.92294282 416.55866321 385.45041275 416.56815147 C374.72760108 416.5847719 364.0048114 416.5902615 353.28198794 416.59137623 C344.56653771 416.59232623 335.85109475 416.59643411 327.13564682 416.60277748 C306.45128418 416.61752598 285.76692637 416.6298269 265.08255768 416.62878036 C264.42108456 416.62874921 263.75961145 416.62871805 263.07809369 416.62868595 C259.7255042 416.62851973 256.37291471 416.62832165 253.02032521 416.62811653 C252.02157878 416.6280567 252.02157878 416.6280567 251.00265564 416.62799565 C249.65618289 416.62791478 248.30971014 416.62783118 246.96323739 416.62774487 C226.01683676 416.62651951 205.0705009 416.64152988 184.1241188 416.66889 C160.5883064 416.69961979 137.05252625 416.71679661 113.51669097 416.71496356 C101.05601291 416.71429933 88.59540788 416.719806 76.13474655 416.74131966 C65.52544268 416.75951935 54.91624495 416.76388872 44.30693224 416.75030081 C38.89406514 416.74376504 33.48140173 416.7436761 28.06855392 416.76100731 C23.11147901 416.77671592 18.15476969 416.77389683 13.19770381 416.75643905 C11.40632919 416.75336429 9.61492744 416.75701941 7.82358482 416.7681592 C-3.8779796 416.83609646 -14.18721161 416.35528968 -23.17568588 407.96039391 C-28.97396363 401.51128907 -31.95314542 394.51469493 -31.96420479 385.79972267 C-31.97065368 384.5120538 -31.97710257 383.22438492 -31.98374689 381.89769578 C-31.98080485 380.47590677 -31.97766943 379.05411815 -31.97436142 377.63232994 C-31.97809894 376.1163497 -31.98270087 374.60037139 -31.98809206 373.08439612 C-32.00032504 368.92145707 -32.00006125 364.75859836 -31.99770331 360.59564543 C-31.99729522 356.10470752 -32.00833361 351.61379539 -32.01781845 347.12286949 C-32.03443126 338.32513452 -32.03992813 329.52742634 -32.04104321 320.72967699 C-32.04199359 313.57791817 -32.04610338 306.42616818 -32.05244446 299.27441216 C-32.07005795 278.99630274 -32.07928321 258.71821449 -32.07778351 238.44009736 C-32.0777036 237.34690264 -32.07762369 236.25370792 -32.07754135 235.12738609 C-32.07745959 234.03285597 -32.07737783 232.93832585 -32.07729359 231.81062815 C-32.07648075 214.07358015 -32.09561766 196.3366171 -32.12381808 178.59959367 C-32.15254791 160.3858095 -32.16635831 142.17206675 -32.16463053 123.95825934 C-32.16396665 113.73322892 -32.16945831 103.50828752 -32.19098663 93.28327751 C-32.20919975 84.57705226 -32.2135447 75.87095638 -32.19996779 67.16472033 C-32.1934387 62.72396486 -32.19331875 58.2834576 -32.21067429 53.84272575 C-32.22641281 49.77382682 -32.22353359 45.70537273 -32.20610602 41.63648459 C-32.20303782 40.16812228 -32.20666178 38.6997267 -32.21782617 37.23140362 C-32.29543551 26.29611487 -31.1123076 17.03536893 -23.41006088 8.78851891 C-16.52589383 2.59908431 -9.24059238 -0.05425411 0 0 Z M16.29306412 48.25726891 C16.29306412 153.85726891 16.29306412 259.45726891 16.29306412 368.25726891 C148.29306412 368.25726891 280.29306412 368.25726891 416.29306412 368.25726891 C416.29306412 262.65726891 416.29306412 157.05726891 416.29306412 48.25726891 C284.29306412 48.25726891 152.29306412 48.25726891 16.29306412 48.25726891 Z " fill="#87919E" transform="translate(39.70693588256836,47.74273109436035)"/>
<path d="M0 0 C1.20348083 -0.00006042 1.20348083 -0.00006042 2.43127441 -0.00012207 C4.12239443 0.00522359 5.8135146 0.02276578 7.50439453 0.05175781 C10.08573724 0.09362006 12.66446867 0.09282315 15.24609375 0.0859375 C16.89324721 0.09643096 18.54038728 0.10936992 20.1875 0.125 C21.3392572 0.12530212 21.3392572 0.12530212 22.51428223 0.12561035 C27.02599744 0.22473308 30.01087988 0.78722566 33.59375 3.59375 C34.76801264 5.94227528 34.70883173 7.33149065 34.69140625 9.9453125 C34.68657227 11.22148437 34.68657227 11.22148437 34.68164062 12.5234375 C34.66907227 13.85761719 34.66907227 13.85761719 34.65625 15.21875 C34.65173828 16.1159375 34.64722656 17.013125 34.64257812 17.9375 C34.63077591 20.15631648 34.61431155 22.37500018 34.59375 24.59375 C35.83987061 24.57803955 37.08599121 24.5623291 38.36987305 24.54614258 C43.00099198 24.49176927 47.63208278 24.45737289 52.26342773 24.42895508 C54.26640572 24.41388535 56.2693508 24.3934259 58.2722168 24.36743164 C61.15421681 24.33096873 64.03577984 24.31400539 66.91796875 24.30078125 C67.81086105 24.28529739 68.70375336 24.26981354 69.623703 24.25386047 C74.42848067 24.25256513 77.71655859 24.41183247 81.59375 27.59375 C82.72710166 29.86045332 82.71718812 31.07763875 82.71400452 33.59268188 C82.71606651 34.84630775 82.71606651 34.84630775 82.71817017 36.1252594 C82.71457489 37.04379196 82.71097961 37.96232452 82.70727539 38.90869141 C82.70742142 39.87458694 82.70756744 40.84048248 82.7077179 41.83564758 C82.70701937 45.03889181 82.69922978 48.24207839 82.69140625 51.4453125 C82.68954186 53.66205819 82.68811805 55.87880429 82.68711853 58.09555054 C82.68329504 63.93828463 82.67346617 69.78099397 82.66241455 75.62371826 C82.65219682 81.58247544 82.64762013 87.5412366 82.64257812 93.5 C82.63184377 105.19792756 82.61476935 116.89583672 82.59375 128.59375 C87.87375 128.59375 93.15375 128.59375 98.59375 128.59375 C98.50673828 126.62341797 98.50673828 126.62341797 98.41796875 124.61328125 C98.37105952 122.87763977 98.32556061 121.14195977 98.28125 119.40625 C98.2184082 118.10977539 98.2184082 118.10977539 98.15429688 116.78710938 C98.13818359 115.94599609 98.12207031 115.10488281 98.10546875 114.23828125 C98.07928467 113.46846924 98.05310059 112.69865723 98.02612305 111.90551758 C98.92500521 108.24465081 100.60910639 106.8329018 103.59375 104.59375 C106.59462739 104.11849793 109.01071565 103.93617131 112 104 C112.80232056 103.99995972 113.60464111 103.99991943 114.43127441 103.99987793 C116.12239443 104.00522359 117.8135146 104.02276578 119.50439453 104.05175781 C122.08573724 104.09362006 124.66446867 104.09282315 127.24609375 104.0859375 C128.89324721 104.09643096 130.54038728 104.10936992 132.1875 104.125 C132.95533813 104.12520142 133.72317627 104.12540283 134.51428223 104.12561035 C139.02599744 104.22473308 142.01087988 104.78722566 145.59375 107.59375 C146.76801264 109.94227528 146.70883173 111.33149065 146.69140625 113.9453125 C146.68818359 114.79609375 146.68496094 115.646875 146.68164062 116.5234375 C146.67326172 117.41289062 146.66488281 118.30234375 146.65625 119.21875 C146.65173828 120.1159375 146.64722656 121.013125 146.64257812 121.9375 C146.63077611 124.15627831 146.61284039 126.37502243 146.59375 128.59375 C151.87375 128.59375 157.15375 128.59375 162.59375 128.59375 C162.58264694 127.36457352 162.57154388 126.13539703 162.56010437 124.86897278 C162.45877595 113.28900593 162.38380722 101.70912895 162.33468914 90.12881947 C162.30858806 84.17512864 162.27317971 78.2217955 162.21655273 72.26831055 C162.16225265 66.5235562 162.13233332 60.77914605 162.11936378 55.03415489 C162.11012042 52.84164701 162.09207029 50.64915812 162.06509972 48.45679665 C162.02883696 45.38720521 162.02380362 42.31903852 162.02612305 39.24926758 C161.99915848 37.88764748 161.99915848 37.88764748 161.97164917 36.4985199 C162.00764973 32.09948884 162.1728653 30.16680895 164.8470459 26.52575684 C167.64608195 24.55694018 168.76257509 23.97677102 172.10864258 24.02612305 C172.96915726 24.0265007 173.82967194 24.02687836 174.71626282 24.02726746 C175.6310289 24.05307388 176.54579498 24.07888031 177.48828125 24.10546875 C178.43563644 24.11254349 179.38299164 24.11961823 180.35905457 24.12690735 C183.37560021 24.15482666 186.3902684 24.21756085 189.40625 24.28125 C191.45505126 24.30633604 193.5038817 24.32914867 195.55273438 24.34960938 C200.56712621 24.40464541 205.58012014 24.49090144 210.59375 24.59375 C210.53574219 23.28019531 210.47773438 21.96664062 210.41796875 20.61328125 C210.37105952 18.87763977 210.32556061 17.14195977 210.28125 15.40625 C210.23935547 14.54193359 210.19746094 13.67761719 210.15429688 12.78710938 C210.07155023 8.46773438 210.18968195 6.21706751 212.58789062 2.51757812 C216.42623273 0.06093941 219.58297145 -0.0943146 224 0 C224.80232056 -0.00004028 225.60464111 -0.00008057 226.43127441 -0.00012207 C228.12239443 0.00522359 229.8135146 0.02276578 231.50439453 0.05175781 C234.08573724 0.09362006 236.66446867 0.09282315 239.24609375 0.0859375 C240.89324721 0.09643096 242.54038728 0.10936992 244.1875 0.125 C244.95533813 0.12520142 245.72317627 0.12540283 246.51428223 0.12561035 C251.02599744 0.22473308 254.01087988 0.78722566 257.59375 3.59375 C258.76801264 5.94227528 258.70883173 7.33149065 258.69140625 9.9453125 C258.68818359 10.79609375 258.68496094 11.646875 258.68164062 12.5234375 C258.67326172 13.41289062 258.66488281 14.30234375 258.65625 15.21875 C258.65173828 16.1159375 258.64722656 17.013125 258.64257812 17.9375 C258.63077591 20.15631648 258.61431155 22.37500018 258.59375 24.59375 C259.83987061 24.57803955 261.08599121 24.5623291 262.36987305 24.54614258 C267.00099198 24.49176927 271.63208278 24.45737289 276.26342773 24.42895508 C278.26640572 24.41388535 280.2693508 24.3934259 282.2722168 24.36743164 C285.15421681 24.33096873 288.03577984 24.31400539 290.91796875 24.30078125 C291.81086105 24.28529739 292.70375336 24.26981354 293.623703 24.25386047 C298.42848067 24.25256513 301.71655859 24.41183247 305.59375 27.59375 C306.80242562 30.01110124 306.72478836 31.54125504 306.73419189 34.24238586 C306.73990204 35.22236542 306.74561218 36.20234497 306.75149536 37.21202087 C306.75261322 38.29101151 306.75373108 39.37000214 306.75488281 40.48168945 C306.75984772 41.6151178 306.76481262 42.74854614 306.76992798 43.9163208 C306.78457775 47.67989704 306.79135638 51.44343113 306.796875 55.20703125 C306.80262423 57.81536358 306.80838199 60.4236959 306.81414795 63.0320282 C306.82372273 67.80679546 306.82961737 72.58155358 306.8326447 77.35632926 C306.83712391 84.38249688 306.85466434 91.40846982 306.8836453 98.43457824 C306.9078758 104.52037898 306.9155895 110.60609941 306.91732025 116.69194603 C306.92035137 119.28074389 306.92839527 121.86954083 306.94150543 124.45830727 C306.9585285 128.07823113 306.95669449 131.69767949 306.95019531 135.31762695 C306.9594101 136.39054489 306.96862488 137.46346283 306.9781189 138.56889343 C306.9256765 147.87661185 306.9256765 147.87661185 303.59375 151.59375 C300.78746544 152.52917819 299.10845368 152.71743604 296.20881653 152.71400452 C295.31279221 152.71537918 294.41676788 152.71675385 293.49359131 152.71817017 C292.51319885 152.71457489 291.5328064 152.71097961 290.52270508 152.70727539 C289.48838852 152.70742142 288.45407196 152.70756744 287.38841248 152.7077179 C283.96334754 152.7070202 280.53833671 152.69923446 277.11328125 152.69140625 C274.74102305 152.68954156 272.36876446 152.6881179 269.99650574 152.68711853 C263.74772074 152.68329736 257.49895893 152.67347045 251.25018311 152.66241455 C244.8757763 152.65219186 238.50136576 152.64761907 232.12695312 152.64257812 C219.61587552 152.63184786 207.10481399 152.61496797 194.59375 152.59375 C194.60374275 154.41872261 194.60374275 154.41872261 194.61393738 156.28056335 C194.67473611 167.74285463 194.71971676 179.20511321 194.74918652 190.66752911 C194.7648465 196.56056625 194.7860911 202.45347329 194.82006836 208.34643555 C194.85264955 214.03281243 194.87060051 219.7190641 194.87838173 225.40552711 C194.88392743 227.57567122 194.89475673 229.74580843 194.91094017 231.91589928 C194.93269765 234.9540936 194.93571759 237.99176968 194.93432617 241.0300293 C194.95050491 242.37762329 194.95050491 242.37762329 194.9670105 243.75244141 C194.94356406 248.47960373 194.79102394 251.82358613 191.59375 255.59375 C188.52397173 256.61700942 186.42619355 256.72435974 183.21070862 256.73419189 C181.53456985 256.74275711 181.53456985 256.74275711 179.8245697 256.75149536 C178.59799149 256.75261322 177.37141327 256.75373108 176.10766602 256.75488281 C174.81642822 256.75984772 173.52519043 256.76481262 172.19482422 256.76992798 C168.65145838 256.78304322 165.10811148 256.78949493 161.56472516 256.79393864 C159.35136933 256.79687008 157.13801868 256.80097497 154.92466545 256.80544281 C148.00058598 256.8191139 141.07651834 256.82878311 134.1524263 256.8326447 C126.15730038 256.83712811 118.16234519 256.85469063 110.1672712 256.8836453 C103.98800256 256.90524807 97.80878202 256.91534819 91.62947601 256.91668582 C87.9382613 256.91773464 84.24720717 256.92365879 80.55603218 256.94150543 C76.44032514 256.96101819 72.32497663 256.9567028 68.20922852 256.95019531 C66.98467453 256.9594101 65.76012054 256.96862488 64.49845886 256.9781189 C62.81809036 256.96976517 62.81809036 256.96976517 61.10377502 256.96124268 C59.64396886 256.96344252 59.64396886 256.96344252 58.15467167 256.9656868 C55.12792679 256.52609592 53.77732476 255.70921467 51.59375 253.59375 C50.68575283 250.8697585 50.46991418 249.30952694 50.47349548 246.51252747 C50.47143349 245.26946083 50.47143349 245.26946083 50.46932983 244.00128174 C50.47472275 242.64290192 50.47472275 242.64290192 50.48022461 241.25708008 C50.48007858 240.30079208 50.47993256 239.34450409 50.4797821 238.35923767 C50.48047956 235.1938959 50.4882642 232.02861276 50.49609375 228.86328125 C50.49795852 226.67038505 50.49938215 224.47748844 50.50038147 222.28459167 C50.50420198 216.50927584 50.51402832 210.73398511 50.52508545 204.9586792 C50.53530956 199.06685729 50.53988124 193.17503134 50.54492188 187.28320312 C50.55565098 175.72004105 50.57272185 164.15689761 50.59375 152.59375 C50.04598782 152.59651538 49.49822563 152.59928076 48.93386459 152.60212994 C35.60520853 152.66838482 22.27658132 152.71783662 8.94779587 152.74918652 C2.50208153 152.76485589 -3.94351413 152.78611761 -10.38916016 152.82006836 C-16.60720744 152.85261608 -22.82514042 152.87059343 -29.0432663 152.87838173 C-31.41798452 152.88393346 -33.79269634 152.89477434 -36.16736603 152.91094017 C-39.4883435 152.93265307 -42.80884602 152.93571945 -46.12988281 152.93432617 C-47.11603073 152.945112 -48.10217865 152.95589783 -49.11820984 152.9670105 C-50.02402298 152.96288651 -50.92983612 152.95876251 -51.86309814 152.95451355 C-53.04114958 152.95866162 -53.04114958 152.95866162 -54.24300003 152.96289349 C-57.00864322 152.49095581 -58.37091834 151.49907982 -60.40625 149.59375 C-61.3715674 146.69779779 -61.54048226 144.83749375 -61.56015015 141.82485962 C-61.56875061 140.8435054 -61.57735107 139.86215118 -61.58621216 138.85105896 C-61.59047211 137.7756636 -61.59473206 136.70026825 -61.59912109 135.59228516 C-61.60729858 134.45871078 -61.61547607 133.32513641 -61.62390137 132.1572113 C-61.64875232 128.39908377 -61.66526857 124.64099394 -61.6796875 120.8828125 C-61.68501118 119.60099468 -61.69033485 118.31917686 -61.69581985 116.99851608 C-61.71704583 111.61291674 -61.73617669 106.22732968 -61.74744225 100.8416996 C-61.76368639 93.12742648 -61.79688472 85.41365658 -61.85384309 77.69957316 C-61.89721127 71.61856982 -61.91318686 65.53776397 -61.91957474 59.45661545 C-61.92630399 56.87058297 -61.94156909 54.2845583 -61.96546555 51.69862747 C-61.99697435 48.08336055 -61.99717481 44.46937126 -61.98974609 40.85400391 C-62.00615143 39.78265701 -62.02255676 38.71131012 -62.03945923 37.60749817 C-61.9993384 32.84713326 -61.96782778 30.38301962 -59.15196228 26.42546082 C-56.3665721 24.56728021 -55.1744434 23.97769995 -51.89135742 24.02612305 C-51.03084274 24.0265007 -50.17032806 24.02687836 -49.28373718 24.02726746 C-48.3689711 24.05307388 -47.45420502 24.07888031 -46.51171875 24.10546875 C-45.56436356 24.11254349 -44.61700836 24.11961823 -43.64094543 24.12690735 C-40.62439979 24.15482666 -37.6097316 24.21756085 -34.59375 24.28125 C-32.54494874 24.30633604 -30.4961183 24.32914867 -28.44726562 24.34960938 C-23.43287379 24.40464541 -18.41987986 24.49090144 -13.40625 24.59375 C-13.46425781 23.28019531 -13.52226563 21.96664062 -13.58203125 20.61328125 C-13.62894048 18.87763977 -13.67443939 17.14195977 -13.71875 15.40625 C-13.76064453 14.54193359 -13.80253906 13.67761719 -13.84570312 12.78710938 C-13.92844977 8.46773438 -13.81031805 6.21706751 -11.41210938 2.51757812 C-7.57376727 0.06093941 -4.41702855 -0.0943146 0 0 Z " fill="#000000" transform="translate(133.40625,127.40625)"/>
<path d="M0 0 C0.76031851 -0.00350607 1.52063702 -0.00701215 2.30399549 -0.01062447 C4.8544408 -0.01993624 7.40465766 -0.01501573 9.95511246 -0.01015663 C11.80107632 -0.013893 13.6470386 -0.01849447 15.49299836 -0.02388728 C20.56805931 -0.03613432 25.64305442 -0.0358548 30.71812677 -0.03349853 C36.19066671 -0.03309079 41.66318541 -0.04412539 47.13571548 -0.05361366 C57.85852715 -0.07023409 68.58131683 -0.07572368 79.3041403 -0.07683842 C88.01959052 -0.07778842 96.73503349 -0.0818963 105.45048141 -0.08823967 C126.13484405 -0.10298817 146.81920186 -0.11528909 167.50357056 -0.11424255 C168.16504367 -0.1142114 168.82651679 -0.11418024 169.50803454 -0.11414814 C172.86062404 -0.11398192 176.21321353 -0.11378384 179.56580302 -0.11357872 C180.56454946 -0.11351889 180.56454946 -0.11351889 181.58347259 -0.11345784 C182.92994534 -0.11337697 184.2764181 -0.11329337 185.62289085 -0.11320706 C206.56929147 -0.1119817 227.51562734 -0.12699207 248.46200943 -0.15435219 C271.99782184 -0.18508198 295.53360198 -0.2022588 319.06943727 -0.20042574 C331.53011532 -0.19976152 343.99072035 -0.20526819 356.45138168 -0.22678185 C367.06068555 -0.24498154 377.66988328 -0.24935091 388.27919599 -0.235763 C393.6920631 -0.22922723 399.10472651 -0.22913829 404.51757431 -0.2464695 C409.47464922 -0.26217811 414.43135855 -0.25935902 419.38842443 -0.24190123 C421.17979904 -0.23882648 422.97120079 -0.2424816 424.76254341 -0.25362138 C436.46410784 -0.32155865 446.77333985 0.15924813 455.76181412 8.55414391 C461.56009186 15.00324874 464.53927365 21.99984288 464.55033302 30.71481514 C464.55678192 32.00248401 464.56323081 33.29015289 464.56987512 34.61684203 C464.56693309 36.03863104 464.56379767 37.46041966 464.56048965 38.88220787 C464.56422717 40.39818811 464.5688291 41.91416643 464.5742203 43.43014169 C464.58645327 47.59308074 464.58618948 51.75593945 464.58383155 55.91889238 C464.58342346 60.40983029 464.59446184 64.90074242 464.60394669 69.39166832 C464.62055949 78.1894033 464.62605637 86.98711147 464.62717144 95.78486082 C464.62812182 102.93661964 464.63223161 110.08836963 464.63857269 117.24012566 C464.65618618 137.51823508 464.66541144 157.79632333 464.66391174 178.07444045 C464.66383183 179.16763517 464.66375192 180.26082989 464.66366959 181.38715172 C464.66358782 182.48168184 464.66350606 183.57621196 464.66342182 184.70390967 C464.66260898 202.44095766 464.6817459 220.17792072 464.70994632 237.91494414 C464.73867615 256.12872831 464.75248655 274.34247106 464.75075877 292.55627847 C464.75009488 302.78130889 464.75558655 313.00625029 464.77711487 323.2312603 C464.79532799 331.93748555 464.79967294 340.64358143 464.78609602 349.34981748 C464.77956693 353.79057295 464.77944699 358.23108022 464.79680252 362.67181206 C464.81254105 366.74071099 464.80966182 370.80916508 464.79223426 374.87805322 C464.78916606 376.34641553 464.79279001 377.81481111 464.80395441 379.28313419 C464.88156374 390.21842294 463.69843584 399.47916888 455.99618912 407.72601891 C449.11202207 413.9154535 441.82672062 416.56879192 432.58612823 416.51453781 C431.82580972 416.51804389 431.06549121 416.52154996 430.28213274 416.52516228 C427.73168743 416.53447405 425.18147057 416.52955355 422.63101578 416.52469444 C420.78505192 416.52843082 418.93908964 416.53303228 417.09312987 416.53842509 C412.01806893 416.55067214 406.94307382 416.55039261 401.86800146 416.54803634 C396.39546153 416.5476286 390.92294282 416.55866321 385.45041275 416.56815147 C374.72760108 416.5847719 364.0048114 416.5902615 353.28198794 416.59137623 C344.56653771 416.59232623 335.85109475 416.59643411 327.13564682 416.60277748 C306.45128418 416.61752598 285.76692637 416.6298269 265.08255768 416.62878036 C264.42108456 416.62874921 263.75961145 416.62871805 263.07809369 416.62868595 C259.7255042 416.62851973 256.37291471 416.62832165 253.02032521 416.62811653 C252.02157878 416.6280567 252.02157878 416.6280567 251.00265564 416.62799565 C249.65618289 416.62791478 248.30971014 416.62783118 246.96323739 416.62774487 C226.01683676 416.62651951 205.0705009 416.64152988 184.1241188 416.66889 C160.5883064 416.69961979 137.05252625 416.71679661 113.51669097 416.71496356 C101.05601291 416.71429933 88.59540788 416.719806 76.13474655 416.74131966 C65.52544268 416.75951935 54.91624495 416.76388872 44.30693224 416.75030081 C38.89406514 416.74376504 33.48140173 416.7436761 28.06855392 416.76100731 C23.11147901 416.77671592 18.15476969 416.77389683 13.19770381 416.75643905 C11.40632919 416.75336429 9.61492744 416.75701941 7.82358482 416.7681592 C-3.8779796 416.83609646 -14.18721161 416.35528968 -23.17568588 407.96039391 C-28.97396363 401.51128907 -31.95314542 394.51469493 -31.96420479 385.79972267 C-31.97065368 384.5120538 -31.97710257 383.22438492 -31.98374689 381.89769578 C-31.98080485 380.47590677 -31.97766943 379.05411815 -31.97436142 377.63232994 C-31.97809894 376.1163497 -31.98270087 374.60037139 -31.98809206 373.08439612 C-32.00032504 368.92145707 -32.00006125 364.75859836 -31.99770331 360.59564543 C-31.99729522 356.10470752 -32.00833361 351.61379539 -32.01781845 347.12286949 C-32.03443126 338.32513452 -32.03992813 329.52742634 -32.04104321 320.72967699 C-32.04199359 313.57791817 -32.04610338 306.42616818 -32.05244446 299.27441216 C-32.07005795 278.99630274 -32.07928321 258.71821449 -32.07778351 238.44009736 C-32.0777036 237.34690264 -32.07762369 236.25370792 -32.07754135 235.12738609 C-32.07745959 234.03285597 -32.07737783 232.93832585 -32.07729359 231.81062815 C-32.07648075 214.07358015 -32.09561766 196.3366171 -32.12381808 178.59959367 C-32.15254791 160.3858095 -32.16635831 142.17206675 -32.16463053 123.95825934 C-32.16396665 113.73322892 -32.16945831 103.50828752 -32.19098663 93.28327751 C-32.20919975 84.57705226 -32.2135447 75.87095638 -32.19996779 67.16472033 C-32.1934387 62.72396486 -32.19331875 58.2834576 -32.21067429 53.84272575 C-32.22641281 49.77382682 -32.22353359 45.70537273 -32.20610602 41.63648459 C-32.20303782 40.16812228 -32.20666178 38.6997267 -32.21782617 37.23140362 C-32.29543551 26.29611487 -31.1123076 17.03536893 -23.41006088 8.78851891 C-16.52589383 2.59908431 -9.24059238 -0.05425411 0 0 Z M-13.01943588 22.88226891 C-15.66174456 26.6010737 -15.83317542 28.57671814 -15.83836365 33.12447548 C-15.84220479 34.38226319 -15.84604594 35.64005089 -15.85000348 36.93595338 C-15.84922314 38.34475539 -15.84834434 39.75355734 -15.84737778 41.16235924 C-15.84995991 42.64886291 -15.85297264 44.13536589 -15.85638118 45.6218679 C-15.86447237 49.72173713 -15.86624193 53.82158888 -15.86697865 57.92146516 C-15.86882554 62.3374054 -15.87637106 66.75333649 -15.88311386 71.16927147 C-15.89671305 80.83246961 -15.90272445 90.49566362 -15.90712452 100.15886974 C-15.90988444 106.18961297 -15.91412134 112.22035459 -15.91862869 118.25109673 C-15.93082375 134.93950487 -15.94112239 151.62791173 -15.94450378 168.31632423 C-15.94472335 169.38505228 -15.94494292 170.45378033 -15.94516914 171.55489407 C-15.94538741 172.62622134 -15.94560569 173.69754861 -15.94583058 174.80134034 C-15.94627405 176.9723595 -15.94672062 179.14337866 -15.94717026 181.31439781 C-15.94739169 182.39130488 -15.94761312 183.46821195 -15.94784126 184.57775256 C-15.95178978 202.02997948 -15.96924442 219.48216465 -15.99252978 236.93437544 C-16.01622863 254.84064589 -16.02870498 272.74689539 -16.0298717 290.65318179 C-16.03078932 300.71157461 -16.03656346 310.76991307 -16.05469131 320.82829094 C-16.07007257 329.39307451 -16.07522449 337.95778692 -16.06695321 346.52258167 C-16.0630396 350.8939177 -16.06401084 355.26511034 -16.07801056 359.63642883 C-16.09070706 363.63736143 -16.08958958 367.63804225 -16.07741985 371.63897428 C-16.07545544 373.0871971 -16.07857549 374.53543749 -16.08726421 375.98363557 C-16.09832306 377.95129388 -16.08909694 379.91903495 -16.07887268 381.88669777 C-16.07946977 382.97996762 -16.08006686 384.07323746 -16.08068204 385.1996367 C-15.56598495 389.41039412 -14.07811734 392.78839513 -11.17177963 395.90180016 C-6.26286938 399.6556727 -3.64611174 400.40399259 2.40966034 400.38869667 C3.15474324 400.3907493 3.89982615 400.39280194 4.66748732 400.39491677 C7.19009573 400.40061787 9.71265007 400.39912571 12.23526382 400.3977108 C14.05175138 400.40029266 15.86823837 400.40330531 17.68472457 400.4067142 C22.69671908 400.41480857 27.70869928 400.41657512 32.72069955 400.41731167 C38.11824318 400.41915801 43.51577931 400.42670322 48.91331863 400.43344688 C60.72520882 400.44704817 72.53709563 400.45305776 84.34899235 400.45745754 C91.71981313 400.46021702 99.09063259 400.46445383 106.46145248 400.46896172 C126.85571205 400.48115688 147.24997057 400.49145561 167.6442337 400.49483681 C168.95037065 400.49505637 170.2565076 400.49527594 171.60222445 400.49550216 C173.56620912 400.49582958 173.56620912 400.49582958 175.56987023 400.49616361 C178.223207 400.49660708 180.87654376 400.49705364 183.52988052 400.49750328 C185.5041149 400.49783543 185.5041149 400.49783543 187.51823279 400.49817428 C208.85037407 400.50212328 230.18247414 400.51957931 251.51460329 400.5428628 C273.39851709 400.5665564 295.28241375 400.57903775 317.16634059 400.58020473 C329.4603834 400.58112263 341.75438174 400.58690377 354.04841232 400.60502434 C364.51627796 400.62039849 374.9840854 400.62556171 385.45196018 400.61728624 C390.79541436 400.61337015 396.13875122 400.61435593 401.48219109 400.62834358 C406.37131145 400.64102519 411.26022565 400.63993572 416.14934549 400.62775287 C417.92058054 400.62578587 419.6918299 400.62892025 421.46304479 400.63759723 C423.86664973 400.64862917 426.2695193 400.6412449 428.67310333 400.6292057 C429.3642859 400.6368009 430.05546846 400.64439609 430.76759595 400.65222144 C435.98771213 400.59559386 440.0454533 399.30734623 443.93759537 395.75726891 C447.5881479 391.06893388 448.417696 388.12292428 448.42728519 382.2670145 C448.43397196 380.37734637 448.43397196 380.37734637 448.44079381 378.44950312 C448.44070451 377.04364343 448.44051465 375.63778373 448.44023514 374.23192406 C448.4435337 372.74455714 448.44725925 371.25719111 448.45137662 369.76982623 C448.46140539 365.67221846 448.46511481 361.57462534 448.46776593 357.47700703 C448.4716663 353.06176449 448.48124473 348.64653358 448.48997879 344.23129845 C448.50974934 333.56428127 448.51980954 322.89726313 448.52870658 312.23023221 C448.53308796 307.20967545 448.53845511 302.18911976 448.54369545 297.16856384 C448.56070728 280.48440552 448.57520263 263.80024786 448.58244419 247.11608219 C448.58435415 242.78562163 448.58627447 238.45516108 448.58823013 234.12470055 C448.58871387 233.04835898 448.58919761 231.97201742 448.58969601 230.86305944 C448.59800074 213.41734912 448.62334533 195.97170727 448.65581081 178.52602687 C448.68885417 160.62424508 448.70689043 142.72249813 448.71008843 124.82068568 C448.71225591 114.76564114 448.7210394 104.71069648 448.74654961 94.65568161 C448.76821931 86.09456878 448.7763254 77.53358009 448.76658282 68.97244295 C448.76202745 64.60308179 448.76399594 60.23397699 448.78334427 55.86465073 C448.80090058 51.86554571 448.80004 47.86688549 448.78444698 43.86777625 C448.78205941 42.42025328 448.78645376 40.97270012 448.79827563 39.52522346 C449.12349614 29.51280623 449.12349614 29.51280623 444.29306412 21.25726891 C439.30121934 16.75243337 435.58108483 16.10917146 429.05342007 16.12304783 C428.30718332 16.1206956 427.56094657 16.11834337 426.79209659 16.11591986 C424.2715866 16.10922063 421.75112805 16.10968836 419.23060989 16.11009789 C417.41325912 16.10679985 415.59590908 16.10307441 413.77855998 16.09895641 C408.76882656 16.08892168 403.75910512 16.08521726 398.74936306 16.0825671 C393.35251741 16.07866848 387.95568129 16.06908993 382.55884171 16.06035423 C369.51879584 16.04057868 356.47874918 16.03052284 343.43869206 16.02162644 C337.30239369 16.01724587 331.16609619 16.01187852 325.02979851 16.00663757 C304.63978854 15.98962522 284.24977912 15.97512966 263.85976315 15.96788883 C258.56677818 15.96597885 253.27379321 15.96405853 247.98080826 15.96210289 C246.66521751 15.96161915 245.34962676 15.96113541 243.99416963 15.96063701 C222.66854629 15.95233151 201.34298996 15.92698586 180.01738944 15.89452221 C158.13796426 15.86148613 136.25856757 15.84344325 114.37911731 15.84024459 C102.08842644 15.83807644 89.79781726 15.82928306 77.50715065 15.80378342 C67.04295817 15.78212365 56.57886722 15.77400272 46.11465486 15.7837502 C40.77318348 15.78830844 35.43192179 15.78632034 30.0904789 15.76698875 C25.20319748 15.74945313 20.31628023 15.7502763 15.42899547 15.76588605 C13.65846081 15.76827677 11.88790157 15.76386334 10.11740466 15.7520574 C7.71456772 15.73702396 5.31303545 15.74655051 2.91023159 15.76228428 C2.21933488 15.75206207 1.52843816 15.74183986 0.81660518 15.73130789 C-5.39246057 15.82032875 -9.00523921 18.32561322 -13.01943588 22.88226891 Z " fill="#000000" transform="translate(39.70693588256836,47.74273109436035)"/>
<path d="M0 0 C1.07261484 -0.01000202 1.07261484 -0.01000202 2.16689867 -0.02020609 C4.56989556 -0.03648581 6.9712732 -0.01704628 9.37422943 0.00215912 C11.11152879 -0.00216866 12.84882386 -0.00868354 14.58610773 -0.01720095 C19.36540359 -0.03423118 24.1441774 -0.0199843 28.92344594 -0.00068617 C34.07553362 0.01471148 39.2275561 0.00134656 44.3796463 -0.00843048 C54.47466844 -0.02297475 64.56948982 -0.01070515 74.66449296 0.01068276 C86.41427624 0.03466508 98.16401324 0.03298009 109.91381556 0.03037685 C130.87490511 0.0266846 151.83589993 0.04753013 172.79695892 0.08162689 C193.14822026 0.11471955 213.49938216 0.12888542 233.85066986 0.12264252 C255.99841235 0.11588198 278.14611314 0.11832917 300.29384947 0.13800192 C302.04980543 0.13956115 302.04980543 0.13956115 303.84123525 0.14115188 C306.19256652 0.14324281 308.54389778 0.14535379 310.89522901 0.14748505 C319.09032515 0.15438732 327.28540846 0.15504885 335.4805069 0.1536026 C345.46415919 0.15216446 355.44773027 0.16182514 365.4313556 0.18554896 C370.52761372 0.19742764 375.6237585 0.20452169 380.72002983 0.1987114 C385.38201768 0.19355319 390.04376573 0.20217947 394.7057125 0.221986 C396.39540541 0.22673976 398.08512156 0.22640803 399.77481109 0.22057563 C402.06603804 0.21342898 404.35646275 0.22461832 406.64762878 0.24050903 C408.55906245 0.24286584 408.55906245 0.24286584 410.50911093 0.24527025 C414.08302633 0.6532062 415.97548461 1.4664008 418.82381439 3.62361908 C420.14290152 6.26179334 419.95167316 8.22526279 419.95524216 11.18127155 C419.9590833 12.37000805 419.96292445 13.55874454 419.96688199 14.78350335 C419.96601551 16.10108044 419.96514903 17.41865753 419.96425629 18.77616119 C419.96683851 20.1808816 419.96985126 21.58560127 419.97325969 22.99031991 C419.98134981 26.86408849 419.98312038 30.73783856 419.98385715 34.61161458 C419.98570422 38.78417993 419.9932498 42.95673558 419.99999237 47.12929535 C420.01359051 56.25938542 420.01960272 65.38947112 420.02400303 74.51956964 C420.02676296 80.2172958 420.03099985 85.91502027 420.0355072 91.61274529 C420.04770182 107.37898178 420.05800074 123.14521691 420.06138229 138.91145802 C420.06160186 139.9210854 420.06182143 140.93071278 420.06204765 141.97093494 C420.06226592 142.98301871 420.0624842 143.99510247 420.06270909 145.03785545 C420.06315256 147.08882288 420.06359913 149.13979032 420.06404877 151.19075775 C420.0642702 152.20811483 420.06449163 153.22547192 420.06471977 154.273658 C420.06866881 170.76304916 420.08612521 187.25239615 420.10940829 203.74177025 C420.13310365 220.65927512 420.14558332 237.57675782 420.14675021 254.49427956 C420.147668 263.9976407 420.15344629 273.50094431 420.17156982 283.00428963 C420.18694635 291.09589338 420.1921058 299.18742182 420.18383172 307.27903739 C420.1799165 311.40924594 420.18089712 315.53930271 420.19488907 319.66949272 C420.20757598 323.44894402 420.2064767 327.22812869 420.19429836 331.00757935 C420.19139932 333.02589831 420.2033165 335.04422166 420.21572042 337.06250459 C420.20913057 338.25906433 420.20254073 339.45562406 420.19575119 340.68844318 C420.19634828 341.7213375 420.19694537 342.75423181 420.19756055 343.81842595 C419.75892978 347.11061773 418.82517495 348.98815306 416.82381439 351.62361908 C413.32312744 352.79051473 410.58697192 352.7514351 406.89093113 352.75504684 C406.17786266 352.75709948 405.46479419 352.75915211 404.73011759 352.76126695 C402.32245438 352.76695576 399.91484804 352.76547739 397.50717926 352.76406097 C395.77089924 352.76664352 394.03461981 352.76965637 392.29834121 352.77306437 C387.51277617 352.78115039 382.72722611 352.78292483 377.94165504 352.78366184 C372.78615977 352.78550958 367.63067234 352.79305541 362.47518158 352.79979706 C351.19652579 352.81339145 339.91787356 352.81940659 328.63921094 352.82380772 C321.60157715 352.82656781 314.56394473 352.83080469 307.52631187 352.83531189 C288.05418134 352.84750513 268.58205191 352.8578049 249.10991764 352.86118698 C247.23978855 352.86151633 247.23978855 352.86151633 245.33187908 352.86185233 C244.08209211 352.86207061 242.83230514 352.86228889 241.54464585 352.86251378 C239.01196961 352.86295725 236.47929337 352.86340382 233.94661713 352.86385345 C232.06216252 352.8641856 232.06216252 352.8641856 230.13963812 352.86452445 C209.769723 352.86847494 189.3998436 352.88593634 169.02994228 352.90921298 C148.13363725 352.93289914 127.23735017 352.94538755 106.34103149 352.9465549 C94.60150866 352.94747311 82.86203239 352.95326218 71.12252235 352.97137451 C61.12893051 352.98673851 51.13539961 352.99191786 41.14179821 352.98363641 C36.03958953 352.97971697 30.93750372 352.98072231 25.83530998 352.99469376 C21.16899837 353.00735524 16.50290293 353.00630397 11.83659195 352.99410304 C10.14415662 352.99213253 8.45170639 352.99528632 6.75929207 353.00394741 C4.46677466 353.01494129 2.17503357 353.0076232 -0.1174612 352.99555588 C-1.39321418 352.99615297 -2.66896715 352.99675005 -3.9833793 352.99736524 C-7.40614763 352.5967 -8.79299601 352.06990292 -11.17618561 349.62361908 C-12.22736963 346.470067 -12.30572184 344.25430924 -12.3132 340.94291878 C-12.32081181 339.15682746 -12.32081181 339.15682746 -12.3285774 337.3346535 C-12.32907516 336.01998925 -12.32957291 334.70532501 -12.33008575 333.35082245 C-12.3341002 331.94523858 -12.33853839 330.53965588 -12.34336531 329.13407457 C-12.35533821 325.26256984 -12.36098089 321.39107757 -12.36554646 317.51955795 C-12.37149964 313.34768861 -12.38311 309.17583419 -12.39383698 305.00397491 C-12.41836443 294.92577423 -12.43298705 284.8475686 -12.44589704 274.76934725 C-12.44960822 271.92409916 -12.45358149 269.07885156 -12.45764971 266.23360395 C-12.48288146 248.57362382 -12.50493945 230.91364294 -12.51737785 213.25364876 C-12.52030765 209.16277946 -12.5232693 205.07191019 -12.52628326 200.98104095 C-12.52702931 199.96424937 -12.52777537 198.94745779 -12.52854402 197.89985435 C-12.54120614 181.41696102 -12.57444086 164.93417536 -12.6160851 148.45133241 C-12.65846691 131.53831695 -12.68206839 114.62535669 -12.68729842 97.71228826 C-12.69071641 88.21224641 -12.70251745 78.71237294 -12.73540115 69.21238327 C-12.76335106 61.12443193 -12.77442324 53.03668347 -12.76320569 44.94868757 C-12.75800635 40.82039193 -12.76098794 36.69252151 -12.78567123 32.56428719 C-12.80807077 28.786575 -12.80749741 25.00959575 -12.78846736 21.23187153 C-12.7843193 19.21456979 -12.80488134 17.19726426 -12.82625425 15.18007147 C-12.81568231 13.98412844 -12.80511037 12.7881854 -12.79421806 11.55600166 C-12.79557459 10.52364942 -12.79693112 9.49129718 -12.79832876 8.42766154 C-11.24471875 1.42543313 -6.54387836 -0.00139878 0 0 Z M3.82381439 16.62361908 C3.82381439 122.22361908 3.82381439 227.82361908 3.82381439 336.62361908 C135.82381439 336.62361908 267.82381439 336.62361908 403.82381439 336.62361908 C403.82381439 231.02361908 403.82381439 125.42361908 403.82381439 16.62361908 C271.82381439 16.62361908 139.82381439 16.62361908 3.82381439 16.62361908 Z " fill="#000000" transform="translate(52.176185607910156,79.37638092041016)"/>
<path d="M0 0 C1.44758713 -0.00467997 1.44758713 -0.00467997 2.92441845 -0.00945449 C6.13693151 -0.01738987 9.34925333 -0.01112826 12.56176758 -0.00482178 C14.87358714 -0.00753362 17.18540583 -0.01109563 19.4972229 -0.01544189 C25.76157889 -0.02454515 32.02586887 -0.02103011 38.29022598 -0.01468372 C44.85233994 -0.00961308 51.41444832 -0.01431814 57.9765625 -0.01745605 C69.70092359 -0.02172477 81.42525697 -0.01511794 93.14961326 -0.00493738 C103.76780715 0.00399741 114.38595729 0.00244515 125.00415039 -0.0067749 C137.35152753 -0.01749152 149.69887681 -0.02145473 162.04625797 -0.01555037 C168.57620862 -0.01243558 175.10612918 -0.01200789 181.63607788 -0.01862335 C187.77565885 -0.02440908 193.91515738 -0.02037735 200.05472946 -0.00883484 C202.30531045 -0.00619483 204.5558984 -0.00694206 206.80647659 -0.01136017 C209.88360999 -0.01684304 212.96048088 -0.00994815 216.03759766 0 C216.9235068 -0.00446144 217.80941595 -0.00892289 218.72217083 -0.01351953 C227.23913874 0.03971335 234.57634622 1.67390877 242.20629883 5.44146729 C243.35485352 5.99189697 244.5034082 6.54232666 245.68676758 7.10943604 C248.57856983 8.97063116 250.09275918 10.31471861 252.22705078 12.88800049 C253.01726372 13.83350517 253.01726372 13.83350517 253.82344055 14.79811096 C254.21790878 15.27854355 254.61237701 15.75897614 255.01879883 16.25396729 C253.88861328 16.26331299 252.75842773 16.27265869 251.59399414 16.2822876 C247.39665461 16.32219121 243.20004779 16.38795055 239.00317383 16.46148682 C237.18751444 16.48969438 235.37173231 16.51091002 233.5559082 16.52496338 C230.94394094 16.54639637 228.33344909 16.59304613 225.72192383 16.64459229 C224.91136536 16.64582092 224.10080688 16.64704956 223.26568604 16.64831543 C219.92240727 16.73500319 217.44664262 17.00917438 214.52172852 18.68267822 C212.20738555 22.64217466 212.34210313 26.49242043 212.26879883 31.00396729 C212.23915039 31.89213135 212.20950195 32.78029541 212.17895508 33.69537354 C212.10842965 35.88166178 212.05565246 38.06689497 212.01879883 40.25396729 C210.73714844 40.26331299 209.45549805 40.27265869 208.13500977 40.2822876 C203.37863441 40.3221679 198.62290721 40.38792144 193.86694336 40.46148682 C191.80875985 40.48970777 189.75046773 40.5109167 187.69213867 40.52496338 C184.73275098 40.54637718 181.77467063 40.59301949 178.81567383 40.64459229 C177.43578278 40.64643524 177.43578278 40.64643524 176.02801514 40.64831543 C174.73712982 40.67789337 174.73712982 40.67789337 173.42016602 40.70806885 C172.66515808 40.71695129 171.91015015 40.72583374 171.13226318 40.73498535 C167.92982055 41.5213766 166.89414334 42.52228919 165.01879883 45.25396729 C164.41903449 48.43171726 164.45509221 51.5696832 164.47290039 54.79595947 C164.45739388 56.24524086 164.45739388 56.24524086 164.4415741 57.72380066 C164.41208426 60.91631675 164.41064559 64.10820054 164.40942383 67.30084229 C164.3944464 69.51474217 164.37772018 71.72863085 164.35931396 73.94250488 C164.31557944 79.76876328 164.29562771 85.59487094 164.28057861 91.42126465 C164.26102963 97.36689184 164.21905711 103.31235573 164.17895508 109.25787354 C164.10358675 120.92318782 164.05333529 132.58846567 164.01879883 144.25396729 C158.73879883 144.25396729 153.45879883 144.25396729 148.01879883 144.25396729 C147.96981445 142.91720947 147.92083008 141.58045166 147.87036133 140.20318604 C147.79532701 138.4492589 147.71977947 136.69535368 147.64379883 134.94146729 C147.59739258 133.61985596 147.59739258 133.61985596 147.55004883 132.27154541 C147.51137695 131.42398682 147.47270508 130.57642822 147.43286133 129.70318604 C147.40144043 128.92290039 147.37001953 128.14261475 147.33764648 127.33868408 C147.12291994 124.95240961 147.12291994 124.95240961 145.01879883 122.25396729 C141.25278932 120.99863078 137.69888438 121.05280686 133.77270508 121.01568604 C132.56142189 121.00357841 132.56142189 121.00357841 131.32566833 120.9912262 C129.61850114 120.97740578 127.91130655 120.9666745 126.20410156 120.95880127 C123.59427794 120.94155306 120.98571008 120.89764672 118.3762207 120.85357666 C116.7167248 120.84345223 115.05721814 120.83493534 113.39770508 120.82818604 C112.61843155 120.81067795 111.83915802 120.79316986 111.03627014 120.77513123 C107.5465538 120.78910173 105.42574271 120.96869487 102.53320312 122.99639893 C100.8535798 125.5002643 100.49012661 126.81483934 100.40942383 129.80084229 C100.37719727 130.64517822 100.3449707 131.48951416 100.31176758 132.35943604 C100.29758789 133.23213135 100.2834082 134.10482666 100.26879883 135.00396729 C100.23915039 135.89213135 100.20950195 136.78029541 100.17895508 137.69537354 C100.10844822 139.88108626 100.06133649 142.0675314 100.01879883 144.25396729 C94.73879883 144.25396729 89.45879883 144.25396729 84.01879883 144.25396729 C84.01071198 143.02034958 84.00262512 141.78673187 83.99429321 140.51573181 C83.91690036 128.90553451 83.82917854 117.29545538 83.73127174 105.68541241 C83.68126752 99.71618168 83.63493783 93.74696901 83.59692383 87.77764893 C83.56012319 82.01987949 83.51377748 76.26225962 83.46073532 70.50461769 C83.44216358 68.30495635 83.42706597 66.10526291 83.41545486 63.90555382 C83.39864002 60.83102383 83.36961644 57.75683851 83.33764648 54.68243408 C83.3354863 53.7674968 83.33332611 52.85255951 83.33110046 51.90989685 C83.31993698 51.07277161 83.3087735 50.23564636 83.29727173 49.37315369 C83.29174097 48.64585902 83.28621021 47.91856436 83.28051186 47.16923046 C83.11615246 44.92664238 83.11615246 44.92664238 81.01879883 42.25396729 C78.30930908 41.35080404 76.61744549 41.10739229 73.82275391 41.04864502 C72.98210892 41.0286998 72.14146393 41.00875458 71.27534485 40.98820496 C70.37212997 40.97149246 69.4689151 40.95477997 68.53833008 40.93756104 C67.61034103 40.91677994 66.68235199 40.89599884 65.72624207 40.87458801 C62.76133643 40.80919405 59.79634211 40.75025466 56.83129883 40.69146729 C54.82152403 40.64827241 52.8117582 40.60465781 50.80200195 40.56060791 C45.87435851 40.45352302 40.94662584 40.35222684 36.01879883 40.25396729 C35.98906982 39.41418335 35.98906982 39.41418335 35.95874023 38.55743408 C35.863421 36.01830874 35.7537713 33.47999841 35.64379883 30.94146729 C35.61286133 30.06039307 35.58192383 29.17931885 35.55004883 28.27154541 C35.51137695 27.42398682 35.47270508 26.57642822 35.43286133 25.70318604 C35.40144043 24.92290039 35.37001953 24.14261475 35.33764648 23.33868408 C35.12291994 20.95240961 35.12291994 20.95240961 33.01879883 18.25396729 C29.25278932 16.99863078 25.69888438 17.05280686 21.77270508 17.01568604 C20.56142189 17.00357841 20.56142189 17.00357841 19.32566833 16.9912262 C17.61850114 16.97740578 15.91130655 16.9666745 14.20410156 16.95880127 C11.59427794 16.94155306 8.98571008 16.89764672 6.3762207 16.85357666 C4.7167248 16.84345223 3.05721814 16.83493534 1.39770508 16.82818604 C0.61843155 16.81067795 -0.16084198 16.79316986 -0.96372986 16.77513123 C-6.35407978 16.7967106 -6.88226293 17.15502905 -10.98120117 21.25396729 C-11.31120117 27.52396729 -11.64120117 33.79396729 -11.98120117 40.25396729 C-24.85120117 40.25396729 -37.72120117 40.25396729 -50.98120117 40.25396729 C-48.30756157 26.88576929 -43.805946 17.79752427 -32.98120117 9.25396729 C-22.58459357 2.55507535 -12.24393833 -0.06166054 0 0 Z " fill="#FEFEFE" transform="translate(131.981201171875,111.74603271484375)"/>
<path d="M0 0 C7.92 0 15.84 0 24 0 C24 105.6 24 211.2 24 320 C-108 320 -240 320 -376 320 C-376 312.08 -376 304.16 -376 296 C-373.43042432 295.99503478 -373.43042432 295.99503478 -370.80893803 295.98996925 C-330.14283412 295.91094832 -289.47676329 295.82172713 -248.81070969 295.71994839 C-243.80520313 295.70742955 -238.79969636 295.69499677 -233.79418945 295.68261719 C-232.79768491 295.68015119 -231.80118037 295.6776852 -230.77447873 295.67514448 C-214.6401179 295.63542291 -198.50575008 295.6026729 -182.37136889 295.57250018 C-165.81549272 295.54138402 -149.25964625 295.50277389 -132.70380348 295.45720994 C-122.488328 295.42933166 -112.27287424 295.40729574 -102.05737095 295.39273749 C-95.05182342 295.3821938 -88.04631796 295.36436962 -81.04080213 295.34083296 C-76.99926849 295.3274691 -72.9577938 295.31730319 -68.91623688 295.31578636 C-65.21300785 295.31432554 -61.50992068 295.30368159 -57.80673527 295.28586559 C-55.83902035 295.27875059 -53.87127763 295.28134599 -51.90355211 295.28433573 C-37.71316531 295.19466196 -24.79231345 291.76857694 -14.0625 281.9375 C-2.43511271 269.24716126 -0.71169463 254.25297081 -0.5859375 237.80859375 C-0.56719739 236.25202948 -0.54762192 234.69547507 -0.5272522 233.13893127 C-0.47622493 229.07023974 -0.43644318 225.00151537 -0.39910889 220.93267822 C-0.35888338 216.76949133 -0.30787628 212.60643752 -0.2578125 208.44335938 C-0.16140207 200.2956643 -0.07688733 192.1479026 0 184 C0.969375 183.566875 1.93875 183.13375 2.9375 182.6875 C6.27731765 181.2985139 6.27731765 181.2985139 7 178 C7.09359469 176.40800971 7.13059115 174.81238749 7.13371277 173.21765137 C7.13797775 172.23340683 7.14224274 171.24916229 7.14663696 170.23509216 C7.14595718 168.617286 7.14595718 168.617286 7.14526367 166.96679688 C7.14862228 165.83000992 7.1519809 164.69322296 7.15544128 163.52198792 C7.16496123 159.75423091 7.1668948 155.98651829 7.16796875 152.21875 C7.17118016 149.60705547 7.17454414 146.99536113 7.17805481 144.38366699 C7.18445037 138.90600291 7.18593717 133.42835091 7.18530273 127.95068359 C7.18470152 121.61646199 7.19526253 115.28232543 7.2110464 108.94812536 C7.22568583 102.85644582 7.22929116 96.76480718 7.22869301 90.67311096 C7.22987623 88.07987622 7.23431699 85.48664091 7.24202538 82.89341736 C7.25178003 79.27327327 7.24896529 75.65335048 7.24291992 72.03320312 C7.24853943 70.95466568 7.25415894 69.87612823 7.25994873 68.76490784 C7.25575424 67.7806633 7.25155975 66.79641876 7.24723816 65.78234863 C7.24778293 64.92621223 7.24832769 64.07007584 7.24888897 63.18799591 C7.13566634 60.70830249 7.13566634 60.70830249 5 58 C3.35 57.34 1.7 56.68 0 56 C0 37.52 0 19.04 0 0 Z " fill="#C6E1FA" transform="translate(432,96)"/>
<path d="M0 0 C10.56 0 21.12 0 32 0 C32.375 8.75 32.375 8.75 32.47802734 11.48730469 C32.5136377 12.20821289 32.54924805 12.92912109 32.5859375 13.671875 C32.6173584 14.4050293 32.6487793 15.13818359 32.68115234 15.89355469 C33.04357812 18.2878959 33.73647048 19.93995853 35 22 C38.18977536 23.59488768 41.64505829 23.16301154 45.1484375 23.16796875 C46.36184311 23.17296135 46.36184311 23.17296135 47.59976196 23.17805481 C49.31292146 23.18312186 51.02609083 23.1854632 52.73925781 23.18530273 C55.35758808 23.18748548 57.97549453 23.20563294 60.59375 23.22460938 C62.25781106 23.2275441 63.92187412 23.22952837 65.5859375 23.23046875 C66.36834808 23.23765427 67.15075867 23.24483978 67.95687866 23.25224304 C73.32177991 23.29285334 73.32177991 23.29285334 78 21 C78.88639389 18.34081834 79.17989025 16.51935359 79.31640625 13.76953125 C79.35451416 13.04612549 79.39262207 12.32271973 79.43188477 11.57739258 C79.47498779 10.66497803 79.51809082 9.75256348 79.5625 8.8125 C79.706875 5.904375 79.85125 2.99625 80 0 C90.56 0 101.12 0 112 0 C112 31.68 112 63.36 112 96 C75.04 96 38.08 96 0 96 C0 64.32 0 32.64 0 0 Z " fill="#F5B95B" transform="translate(200,272)"/>
<path d="M0 0 C10.56 0 21.12 0 32 0 C32.375 8.75 32.375 8.75 32.47802734 11.48730469 C32.5136377 12.20821289 32.54924805 12.92912109 32.5859375 13.671875 C32.6173584 14.4050293 32.6487793 15.13818359 32.68115234 15.89355469 C33.04357812 18.2878959 33.73647048 19.93995853 35 22 C38.18977536 23.59488768 41.64505829 23.16301154 45.1484375 23.16796875 C46.36184311 23.17296135 46.36184311 23.17296135 47.59976196 23.17805481 C49.31292146 23.18312186 51.02609083 23.1854632 52.73925781 23.18530273 C55.35758808 23.18748548 57.97549453 23.20563294 60.59375 23.22460938 C62.25781106 23.2275441 63.92187412 23.22952837 65.5859375 23.23046875 C66.36834808 23.23765427 67.15075867 23.24483978 67.95687866 23.25224304 C73.32177991 23.29285334 73.32177991 23.29285334 78 21 C78.88639389 18.34081834 79.17989025 16.51935359 79.31640625 13.76953125 C79.35451416 13.04612549 79.39262207 12.32271973 79.43188477 11.57739258 C79.47498779 10.66497803 79.51809082 9.75256348 79.5625 8.8125 C79.706875 5.904375 79.85125 2.99625 80 0 C90.56 0 101.12 0 112 0 C112 31.68 112 63.36 112 96 C80.32 96 48.64 96 16 96 C15.01 94.02 14.02 92.04 13 90 C8.71 89.34 4.42 88.68 0 88 C0 58.96 0 29.92 0 0 Z " fill="#C56A5F" transform="translate(312,168)"/>
<path d="M0 0 C10.56 0 21.12 0 32 0 C32.375 8.75 32.375 8.75 32.47802734 11.48730469 C32.5136377 12.20821289 32.54924805 12.92912109 32.5859375 13.671875 C32.6173584 14.4050293 32.6487793 15.13818359 32.68115234 15.89355469 C33.04357812 18.2878959 33.73647048 19.93995853 35 22 C38.18977536 23.59488768 41.64505829 23.16301154 45.1484375 23.16796875 C46.36184311 23.17296135 46.36184311 23.17296135 47.59976196 23.17805481 C49.31292146 23.18312186 51.02609083 23.1854632 52.73925781 23.18530273 C55.35758808 23.18748548 57.97549453 23.20563294 60.59375 23.22460938 C62.25781106 23.2275441 63.92187412 23.22952837 65.5859375 23.23046875 C66.36834808 23.23765427 67.15075867 23.24483978 67.95687866 23.25224304 C73.32177991 23.29285334 73.32177991 23.29285334 78 21 C78.88639389 18.34081834 79.17989025 16.51935359 79.31640625 13.76953125 C79.35451416 13.04612549 79.39262207 12.32271973 79.43188477 11.57739258 C79.47498779 10.66497803 79.51809082 9.75256348 79.5625 8.8125 C79.706875 5.904375 79.85125 2.99625 80 0 C90.56 0 101.12 0 112 0 C112 29.04 112 58.08 112 88 C108.37 88.33 104.74 88.66 101 89 C97.87115797 91.23488717 97.21033741 92.36898776 96 96 C64.32 96 32.64 96 0 96 C0 64.32 0 32.64 0 0 Z " fill="#C56A5F" transform="translate(88,168)"/>
<path d="M0 0 C10.56 0 21.12 0 32 0 C32.375 8.75 32.375 8.75 32.47802734 11.48730469 C32.5136377 12.20821289 32.54924805 12.92912109 32.5859375 13.671875 C32.6173584 14.4050293 32.6487793 15.13818359 32.68115234 15.89355469 C33.04357812 18.2878959 33.73647048 19.93995853 35 22 C38.18977536 23.59488768 41.64505829 23.16301154 45.1484375 23.16796875 C46.36184311 23.17296135 46.36184311 23.17296135 47.59976196 23.17805481 C49.31292146 23.18312186 51.02609083 23.1854632 52.73925781 23.18530273 C55.35758808 23.18748548 57.97549453 23.20563294 60.59375 23.22460938 C62.25781106 23.2275441 63.92187412 23.22952837 65.5859375 23.23046875 C66.36834808 23.23765427 67.15075867 23.24483978 67.95687866 23.25224304 C73.32177991 23.29285334 73.32177991 23.29285334 78 21 C78.88639389 18.34081834 79.17989025 16.51935359 79.31640625 13.76953125 C79.35830078 12.96708984 79.40019531 12.16464844 79.44335938 11.33789062 C79.48267578 10.50451172 79.52199219 9.67113281 79.5625 8.8125 C79.62727539 7.5450293 79.62727539 7.5450293 79.69335938 6.25195312 C79.79931518 4.16815567 79.9001502 2.08409897 80 0 C85.28 0 90.56 0 96 0 C96 10.56 96 21.12 96 32 C69.6 32 43.2 32 16 32 C16 37.28 16 42.56 16 48 C42.4 48 68.8 48 96 48 C96 62 96 62 95 64 C90.05 64 85.1 64 80 64 C80 68.95 80 73.9 80 79 C74.83608171 80.7213061 69.40708764 80.05353552 64 80 C64 74.72 64 69.44 64 64 C48.16 64 32.32 64 16 64 C16 69.28 16 74.56 16 80 C10.72 80 5.44 80 0 80 C0 53.6 0 27.2 0 0 Z " fill="#E37C6F" transform="translate(312,168)"/>
<path d="M0 0 C10.56 0 21.12 0 32 0 C32.375 8.75 32.375 8.75 32.47802734 11.48730469 C32.5136377 12.20821289 32.54924805 12.92912109 32.5859375 13.671875 C32.6173584 14.4050293 32.6487793 15.13818359 32.68115234 15.89355469 C33.04357812 18.2878959 33.73647048 19.93995853 35 22 C38.18977536 23.59488768 41.64505829 23.16301154 45.1484375 23.16796875 C46.36184311 23.17296135 46.36184311 23.17296135 47.59976196 23.17805481 C49.31292146 23.18312186 51.02609083 23.1854632 52.73925781 23.18530273 C55.35758808 23.18748548 57.97549453 23.20563294 60.59375 23.22460938 C62.25781106 23.2275441 63.92187412 23.22952837 65.5859375 23.23046875 C66.36834808 23.23765427 67.15075867 23.24483978 67.95687866 23.25224304 C73.32177991 23.29285334 73.32177991 23.29285334 78 21 C78.88639389 18.34081834 79.17989025 16.51935359 79.31640625 13.76953125 C79.35830078 12.96708984 79.40019531 12.16464844 79.44335938 11.33789062 C79.48267578 10.50451172 79.52199219 9.67113281 79.5625 8.8125 C79.62727539 7.5450293 79.62727539 7.5450293 79.69335938 6.25195312 C79.79931518 4.16815567 79.9001502 2.08409897 80 0 C85.28 0 90.56 0 96 0 C96 10.56 96 21.12 96 32 C69.6 32 43.2 32 16 32 C16 37.28 16 42.56 16 48 C42.4 48 68.8 48 96 48 C96 62 96 62 95 64 C90.05 64 85.1 64 80 64 C80 68.95 80 73.9 80 79 C74.83608171 80.7213061 69.40708764 80.05353552 64 80 C64 74.72 64 69.44 64 64 C48.16 64 32.32 64 16 64 C16 69.28 16 74.56 16 80 C10.72 80 5.44 80 0 80 C0 53.6 0 27.2 0 0 Z " fill="#E37C6F" transform="translate(88,168)"/>
<path d="M0 0 C10.56 0 21.12 0 32 0 C32.375 8.75 32.375 8.75 32.47802734 11.48730469 C32.5136377 12.20821289 32.54924805 12.92912109 32.5859375 13.671875 C32.6173584 14.4050293 32.6487793 15.13818359 32.68115234 15.89355469 C33.04357812 18.2878959 33.73647048 19.93995853 35 22 C38.18977536 23.59488768 41.64505829 23.16301154 45.1484375 23.16796875 C46.36184311 23.17296135 46.36184311 23.17296135 47.59976196 23.17805481 C49.31292146 23.18312186 51.02609083 23.1854632 52.73925781 23.18530273 C55.35758808 23.18748548 57.97549453 23.20563294 60.59375 23.22460938 C62.25781106 23.2275441 63.92187412 23.22952837 65.5859375 23.23046875 C66.36834808 23.23765427 67.15075867 23.24483978 67.95687866 23.25224304 C73.32177991 23.29285334 73.32177991 23.29285334 78 21 C78.88639389 18.34081834 79.17989025 16.51935359 79.31640625 13.76953125 C79.35830078 12.96708984 79.40019531 12.16464844 79.44335938 11.33789062 C79.48267578 10.50451172 79.52199219 9.67113281 79.5625 8.8125 C79.62727539 7.5450293 79.62727539 7.5450293 79.69335938 6.25195312 C79.79931518 4.16815567 79.9001502 2.08409897 80 0 C85.28 0 90.56 0 96 0 C96 10.56 96 21.12 96 32 C69.6 32 43.2 32 16 32 C16 37.28 16 42.56 16 48 C42.4 48 68.8 48 96 48 C96 61 96 61 95 64 C90.05 64 85.1 64 80 64 C80 68.95 80 73.9 80 79 C74.83608171 80.7213061 69.40708764 80.05353552 64 80 C64 74.72 64 69.44 64 64 C48.16 64 32.32 64 16 64 C16 69.28 16 74.56 16 80 C10.72 80 5.44 80 0 80 C0 53.6 0 27.2 0 0 Z " fill="#F8D08E" transform="translate(200,272)"/>
<path d="M0 0 C33.99 0 67.98 0 103 0 C103 13.2 103 26.4 103 40 C95.13031478 40.06316335 87.2615644 40.1232383 79.3918457 40.15525055 C75.72596223 40.17099751 72.06029179 40.19198858 68.39453125 40.22631836 C64.85427025 40.25925991 61.31421394 40.27692504 57.77381134 40.28463173 C55.78661845 40.29275518 53.79950626 40.31611689 51.81243896 40.33988953 C36.74206332 40.34264259 24.01440005 36.86256742 12.75 26.5 C5.54156707 18.90067916 1.4821153 10.37480711 0 0 Z " fill="#FEFEFF" transform="translate(81,280)"/>
<path d="M0 0 C23.43 0 46.86 0 71 0 C68.34132285 13.29338577 63.85803519 22.57494325 53 31 C43.11492579 37.19812651 34.55976098 40.14832515 22.75390625 40.09765625 C21.5532251 40.09515869 20.35254395 40.09266113 19.11547852 40.09008789 C17.61299561 40.08098389 16.1105127 40.07187988 14.5625 40.0625 C7.3540625 40.0315625 7.3540625 40.0315625 0 40 C0 26.8 0 13.6 0 0 Z " fill="#FEFEFE" transform="translate(328,280)"/>
<path d="M0 0 C5.28 0 10.56 0 16 0 C16 10.56 16 21.12 16 32 C-10.4 32 -36.8 32 -64 32 C-64 36.62 -64 41.24 -64 46 C-68.47305687 42.69382753 -70.888737 40.66744132 -72 35 C-72.56967452 30.55831899 -72.40794156 27.78566523 -70.3125 23.75 C-67.57313507 20.49237684 -64.82257278 17.91128639 -61 16 C-58.7927077 15.92907158 -56.58332548 15.91584975 -54.375 15.9375 C-53.18648437 15.94652344 -51.99796875 15.95554687 -50.7734375 15.96484375 C-49.85820312 15.97644531 -48.94296875 15.98804688 -48 16 C-47.319375 17.4540625 -47.319375 17.4540625 -46.625 18.9375 C-45.34213779 22.07079582 -45.34213779 22.07079582 -43 23 C-40.27527289 23.11117903 -37.57689337 23.16411246 -34.8515625 23.16796875 C-33.63815689 23.17296135 -33.63815689 23.17296135 -32.40023804 23.17805481 C-30.68707854 23.18312186 -28.97390917 23.1854632 -27.26074219 23.18530273 C-24.64241192 23.18748548 -22.02450547 23.20563294 -19.40625 23.22460938 C-17.74218894 23.2275441 -16.07812588 23.22952837 -14.4140625 23.23046875 C-13.63165192 23.23765427 -12.84924133 23.24483978 -12.04312134 23.25224304 C-6.67822009 23.29285334 -6.67822009 23.29285334 -2 21 C-1.11360611 18.34081834 -0.82010975 16.51935359 -0.68359375 13.76953125 C-0.64169922 12.96708984 -0.59980469 12.16464844 -0.55664062 11.33789062 C-0.51732422 10.50451172 -0.47800781 9.67113281 -0.4375 8.8125 C-0.37272461 7.5450293 -0.37272461 7.5450293 -0.30664062 6.25195312 C-0.20068482 4.16815567 -0.0998498 2.08409897 0 0 Z " fill="#FAE2BB" transform="translate(280,272)"/>
<path d="M0 0 C5.28 0 10.56 0 16 0 C16 10.56 16 21.12 16 32 C-10.4 32 -36.8 32 -64 32 C-64 36.62 -64 41.24 -64 46 C-68.47305687 42.69382753 -70.888737 40.66744132 -72 35 C-72.56967452 30.55831899 -72.40794156 27.78566523 -70.3125 23.75 C-67.57313507 20.49237684 -64.82257278 17.91128639 -61 16 C-58.7927077 15.92907158 -56.58332548 15.91584975 -54.375 15.9375 C-53.18648438 15.94652344 -51.99796875 15.95554688 -50.7734375 15.96484375 C-49.85820312 15.97644531 -48.94296875 15.98804688 -48 16 C-47.319375 17.4540625 -47.319375 17.4540625 -46.625 18.9375 C-45.34213779 22.07079582 -45.34213779 22.07079582 -43 23 C-40.27527289 23.11117903 -37.57689337 23.16411246 -34.8515625 23.16796875 C-33.63815689 23.17296135 -33.63815689 23.17296135 -32.40023804 23.17805481 C-30.68707854 23.18312186 -28.97390917 23.1854632 -27.26074219 23.18530273 C-24.64241192 23.18748548 -22.02450547 23.20563294 -19.40625 23.22460938 C-17.74218894 23.2275441 -16.07812588 23.22952837 -14.4140625 23.23046875 C-13.63165192 23.23765427 -12.84924133 23.24483978 -12.04312134 23.25224304 C-6.67822009 23.29285334 -6.67822009 23.29285334 -2 21 C-1.11360611 18.34081834 -0.82010975 16.51935359 -0.68359375 13.76953125 C-0.64169922 12.96708984 -0.59980469 12.16464844 -0.55664062 11.33789062 C-0.51732422 10.50451172 -0.47800781 9.67113281 -0.4375 8.8125 C-0.37272461 7.5450293 -0.37272461 7.5450293 -0.30664062 6.25195312 C-0.20068482 4.16815567 -0.0998498 2.08409897 0 0 Z " fill="#E8958B" transform="translate(392,168)"/>
<path d="M0 0 C5.28 0 10.56 0 16 0 C16 10.56 16 21.12 16 32 C-10.4 32 -36.8 32 -64 32 C-64 36.62 -64 41.24 -64 46 C-68.47305687 42.69382753 -70.888737 40.66744132 -72 35 C-72.56967452 30.55831899 -72.40794156 27.78566523 -70.3125 23.75 C-67.57313507 20.49237684 -64.82257278 17.91128639 -61 16 C-58.7927077 15.92907158 -56.58332548 15.91584975 -54.375 15.9375 C-53.18648437 15.94652344 -51.99796875 15.95554688 -50.7734375 15.96484375 C-49.85820313 15.97644531 -48.94296875 15.98804688 -48 16 C-47.319375 17.4540625 -47.319375 17.4540625 -46.625 18.9375 C-45.34213779 22.07079582 -45.34213779 22.07079582 -43 23 C-40.27527289 23.11117903 -37.57689337 23.16411246 -34.8515625 23.16796875 C-33.63815689 23.17296135 -33.63815689 23.17296135 -32.40023804 23.17805481 C-30.68707854 23.18312186 -28.97390917 23.1854632 -27.26074219 23.18530273 C-24.64241192 23.18748548 -22.02450547 23.20563294 -19.40625 23.22460938 C-17.74218894 23.2275441 -16.07812588 23.22952837 -14.4140625 23.23046875 C-13.63165192 23.23765427 -12.84924133 23.24483978 -12.04312134 23.25224304 C-6.67822009 23.29285334 -6.67822009 23.29285334 -2 21 C-1.11360611 18.34081834 -0.82010975 16.51935359 -0.68359375 13.76953125 C-0.64169922 12.96708984 -0.59980469 12.16464844 -0.55664062 11.33789062 C-0.51732422 10.50451172 -0.47800781 9.67113281 -0.4375 8.8125 C-0.37272461 7.5450293 -0.37272461 7.5450293 -0.30664062 6.25195312 C-0.20068482 4.16815567 -0.0998498 2.08409897 0 0 Z " fill="#E8958B" transform="translate(168,168)"/>
<path d="M0 0 C26.4 0 52.8 0 80 0 C80 5.28 80 10.56 80 16 C53.6 16 27.2 16 0 16 C0 10.72 0 5.44 0 0 Z " fill="#000000" transform="translate(216,304)"/>
<path d="M0 0 C26.4 0 52.8 0 80 0 C80 5.28 80 10.56 80 16 C53.6 16 27.2 16 0 16 C0 10.72 0 5.44 0 0 Z " fill="#000000" transform="translate(328,200)"/>
<path d="M0 0 C26.4 0 52.8 0 80 0 C80 5.28 80 10.56 80 16 C53.6 16 27.2 16 0 16 C0 10.72 0 5.44 0 0 Z " fill="#000000" transform="translate(104,200)"/>
<path d="M0 0 C15.84 0 31.68 0 48 0 C48 5.28 48 10.56 48 16 C32.16 16 16.32 16 0 16 C0 10.72 0 5.44 0 0 Z " fill="#000000" transform="translate(216,336)"/>
<path d="M0 0 C15.84 0 31.68 0 48 0 C48 5.28 48 10.56 48 16 C32.16 16 16.32 16 0 16 C0 10.72 0 5.44 0 0 Z " fill="#000000" transform="translate(328,232)"/>
<path d="M0 0 C15.84 0 31.68 0 48 0 C48 5.28 48 10.56 48 16 C32.16 16 16.32 16 0 16 C0 10.72 0 5.44 0 0 Z " fill="#000000" transform="translate(104,232)"/>
<path d="M0 0 C5.28 0 10.56 0 16 0 C16 10.56 16 21.12 16 32 C8.08 32 0.16 32 -8 32 C-8.66 29.36 -9.32 26.72 -10 24 C-9.43410156 23.81824219 -8.86820312 23.63648438 -8.28515625 23.44921875 C-7.55167969 23.19785156 -6.81820313 22.94648438 -6.0625 22.6875 C-5.33160156 22.44386719 -4.60070312 22.20023438 -3.84765625 21.94921875 C-1.64067976 21.08759559 -1.64067976 21.08759559 -1 18 C-0.85507877 16.59335074 -0.75371069 15.1818867 -0.68359375 13.76953125 C-0.64169922 12.96708984 -0.59980469 12.16464844 -0.55664062 11.33789062 C-0.51732422 10.50451172 -0.47800781 9.67113281 -0.4375 8.8125 C-0.39431641 7.96751953 -0.35113281 7.12253906 -0.30664062 6.25195312 C-0.20068482 4.16815567 -0.0998498 2.08409897 0 0 Z " fill="#E37B6E" transform="translate(392,168)"/>
<path d="M0 0 C5.28 0 10.56 0 16 0 C16 10.56 16 21.12 16 32 C8.08 32 0.16 32 -8 32 C-8.66 29.36 -9.32 26.72 -10 24 C-9.43410156 23.81824219 -8.86820313 23.63648438 -8.28515625 23.44921875 C-7.55167969 23.19785156 -6.81820312 22.94648438 -6.0625 22.6875 C-5.33160156 22.44386719 -4.60070312 22.20023438 -3.84765625 21.94921875 C-1.64067976 21.08759559 -1.64067976 21.08759559 -1 18 C-0.85507877 16.59335074 -0.75371069 15.1818867 -0.68359375 13.76953125 C-0.64169922 12.96708984 -0.59980469 12.16464844 -0.55664062 11.33789062 C-0.51732422 10.50451172 -0.47800781 9.67113281 -0.4375 8.8125 C-0.39431641 7.96751953 -0.35113281 7.12253906 -0.30664062 6.25195312 C-0.20068482 4.16815567 -0.0998498 2.08409897 0 0 Z " fill="#E37B6E" transform="translate(168,168)"/>
<path d="M0 0 C5.28 0 10.56 0 16 0 C16 10.56 16 21.12 16 32 C8.08 32 0.16 32 -8 32 C-8.66 29.36 -9.32 26.72 -10 24 C-9.43410156 23.81824219 -8.86820312 23.63648438 -8.28515625 23.44921875 C-7.55167969 23.19785156 -6.81820313 22.94648438 -6.0625 22.6875 C-5.33160156 22.44386719 -4.60070312 22.20023437 -3.84765625 21.94921875 C-1.64067976 21.08759559 -1.64067976 21.08759559 -1 18 C-0.85507877 16.59335074 -0.75371069 15.1818867 -0.68359375 13.76953125 C-0.64169922 12.96708984 -0.59980469 12.16464844 -0.55664062 11.33789062 C-0.51732422 10.50451172 -0.47800781 9.67113281 -0.4375 8.8125 C-0.39431641 7.96751953 -0.35113281 7.12253906 -0.30664062 6.25195312 C-0.20068482 4.16815567 -0.0998498 2.08409897 0 0 Z " fill="#F8D08E" transform="translate(280,272)"/>
<path d="M0 0 C5.28 0 10.56 0 16 0 C16 10.56 16 21.12 16 32 C10.72 32 5.44 32 0 32 C0 21.44 0 10.88 0 0 Z " fill="#88929F" transform="translate(248,248)"/>
<path d="M0 0 C5.28 0 10.56 0 16 0 C16 10.56 16 21.12 16 32 C10.72 32 5.44 32 0 32 C0 21.44 0 10.88 0 0 Z " fill="#88929F" transform="translate(360,144)"/>
<path d="M0 0 C5.28 0 10.56 0 16 0 C16 10.56 16 21.12 16 32 C10.72 32 5.44 32 0 32 C0 21.44 0 10.88 0 0 Z " fill="#88929F" transform="translate(136,144)"/>
<path d="M0 0 C5.28 0 10.56 0 16 0 C16 5.28 16 10.56 16 16 C10.72 16 5.44 16 0 16 C0 10.72 0 5.44 0 0 Z " fill="#000000" transform="translate(280,336)"/>
<path d="M0 0 C5.28 0 10.56 0 16 0 C16 5.28 16 10.56 16 16 C10.72 16 5.44 16 0 16 C0 10.72 0 5.44 0 0 Z " fill="#000000" transform="translate(392,232)"/>
<path d="M0 0 C5.28 0 10.56 0 16 0 C16 5.28 16 10.56 16 16 C10.72 16 5.44 16 0 16 C0 10.72 0 5.44 0 0 Z " fill="#000000" transform="translate(168,232)"/>
<path d="M0 0 C2.64 0 5.28 0 8 0 C8.08149592 3.02138567 8.14073421 6.04053905 8.1875 9.0625 C8.22520508 10.33383789 8.22520508 10.33383789 8.26367188 11.63085938 C8.3284993 17.22762665 7.81324267 21.11191457 5 26 C3.35 27.32 1.7 28.64 0 30 C0 20.1 0 10.2 0 0 Z " fill="#9FA7B1" transform="translate(248,248)"/>
<path d="M0 0 C2.64 0 5.28 0 8 0 C8.08149592 3.02138567 8.14073421 6.04053905 8.1875 9.0625 C8.22520508 10.33383789 8.22520508 10.33383789 8.26367188 11.63085938 C8.3284993 17.22762665 7.81324267 21.11191457 5 26 C3.35 27.32 1.7 28.64 0 30 C0 20.1 0 10.2 0 0 Z " fill="#9FA7B1" transform="translate(360,144)"/>
<path d="M0 0 C2.64 0 5.28 0 8 0 C8.08149592 3.02138567 8.14073421 6.04053905 8.1875 9.0625 C8.22520508 10.33383789 8.22520508 10.33383789 8.26367188 11.63085938 C8.3284993 17.22762665 7.81324267 21.11191457 5 26 C3.35 27.32 1.7 28.64 0 30 C0 20.1 0 10.2 0 0 Z " fill="#9FA7B1" transform="translate(136,144)"/>
<path d="M0 0 C2.40375534 3.20500713 3.75198621 5.39196534 5.1875 9 C5.53167969 9.845625 5.87585938 10.69125 6.23046875 11.5625 C7 14 7 14 7 18 C4.69 18 2.38 18 0 18 C0 12.06 0 6.12 0 0 Z " fill="#FEFEFF" transform="translate(392,134)"/>
</svg>
