<?xml version="1.0" encoding="UTF-8"?>
<svg version="1.1" xmlns="http://www.w3.org/2000/svg" width="512" height="512">
<path d="M0 0 C2.69990662 1.79993774 4.5418865 3.083773 6 6 C6 15.9 6 25.8 6 36 C75.96 36 145.92 36 218 36 C218 26.1 218 16.2 218 6 C222 1 222 1 224 0 C227.87984253 -0.25303321 230.77364205 -0.30454139 234 2 C236.37755774 5.56157515 236.23091541 8.7519818 236.1953125 12.953125 C236.19106766 13.94345734 236.19106766 13.94345734 236.18673706 14.95379639 C236.17558415 17.05271897 236.15048946 19.15120742 236.125 21.25 C236.11496384 22.67707715 236.1058391 24.10416102 236.09765625 25.53125 C236.07566111 29.02097328 236.04116536 32.51044423 236 36 C236.94103073 35.98889694 237.88206146 35.97779388 238.85160828 35.96635437 C247.72377793 35.86495693 256.59582989 35.79002455 265.46844769 35.74093914 C270.02991082 35.71485512 274.59090587 35.67947938 279.15209961 35.62280273 C283.55470689 35.56843957 287.95686423 35.53857047 292.35978127 35.52561378 C294.03874609 35.51638155 295.71768653 35.49835268 297.39645958 35.47134972 C299.75011599 35.43500006 302.1019182 35.43005681 304.45581055 35.43237305 C305.1484903 35.41439667 305.84117004 35.39642029 306.55484009 35.37789917 C310.40880396 35.4188825 311.90908469 35.92545054 314.9322052 38.40437317 C316.96559328 40.95681051 317.66999049 41.88204597 317.5625 45.0625 C317 49 317 49 315.1875 51.4375 C311.6686835 53.95094036 308.87723808 54.12086872 304.67578125 54.09765625 C303.64775391 54.09443359 302.61972656 54.09121094 301.56054688 54.08789062 C300.48869141 54.07951172 299.41683594 54.07113281 298.3125 54.0625 C297.22904297 54.05798828 296.14558594 54.05347656 295.02929688 54.04882812 C292.35280915 54.03703743 289.67643223 54.02058063 287 54 C287.00276538 55.25197992 287.00553076 56.50395985 287.00837994 57.79387856 C287.07334909 87.51126793 287.12281934 117.22863899 287.15319599 146.94608197 C287.15694812 150.60354045 287.16083109 154.26099878 287.16479492 157.91845703 C287.16558185 158.64659317 287.16636878 159.37472931 287.16717956 160.12493019 C287.18023459 171.91584435 287.20388896 183.70671464 287.23145839 195.49760278 C287.25950991 207.59554177 287.27617572 219.69345779 287.28226548 231.79142797 C287.28638246 239.25693562 287.29938703 246.72231928 287.3237494 254.18778877 C287.34147726 259.91167892 287.34336625 265.63548957 287.33932304 271.3594017 C287.34014952 273.70799778 287.34613207 276.05659848 287.35761642 278.40516663 C287.37251541 281.60871449 287.36896275 284.81172942 287.36076355 288.01528931 C287.36950207 288.94720364 287.3782406 289.87911798 287.38724393 290.83927214 C287.35162111 295.97946467 286.87314057 299.55039718 284 304 C280.76281809 306.46624259 277.5497021 306.24244071 273.57910156 306.22705078 C271.62753143 306.22682419 271.62753143 306.22682419 269.63653564 306.22659302 C268.22123053 306.21638046 266.80592699 306.20594848 265.390625 306.1953125 C263.93902786 306.19158071 262.4874282 306.18873452 261.03582764 306.18673706 C257.22175093 306.17911364 253.40782738 306.15947635 249.59381104 306.1373291 C245.69928051 306.11684278 241.80472516 306.10772939 237.91015625 306.09765625 C230.2733678 306.07622915 222.63670539 306.04210892 215 306 C217.16755308 311.06488707 219.33589007 316.12943735 221.50512695 321.19360352 C223.39000095 325.59418581 225.27229358 329.99586102 227.15307617 334.39819336 C231.92059915 345.54746378 236.72368104 356.67836877 241.625 367.76953125 C242.93476701 370.74781059 244.24347491 373.72655301 245.55184937 376.70544434 C246.38821729 378.60093358 247.22982679 380.49411918 248.07681274 382.3848877 C249.25831674 385.02315721 250.42180255 387.66872661 251.58203125 390.31640625 C251.93100464 391.08209427 252.27997803 391.84778229 252.63952637 392.63667297 C254.81732826 397.66764311 255.50311583 401.51028224 255 407 C253.12984906 409.43119623 251.71861655 410.64069173 249 412 C245.58592396 412.37934178 243.61370177 412.35140183 240.60546875 410.62890625 C236.82782309 406.81727877 235.19645844 402.5305283 233.125 397.625 C232.63741211 396.50029297 232.14982422 395.37558594 231.64746094 394.21679688 C230.12583409 390.70106351 228.62586146 387.17634364 227.12780762 383.6505127 C225.86402302 380.68043423 224.59497748 377.71263644 223.32519531 374.74511719 C216.95526382 359.85741488 210.60904601 344.95976903 204.29370117 330.04882812 C203.03950721 327.09310549 201.77928913 324.14002028 200.51757812 321.1875 C199.77726443 319.44795042 199.0370251 317.70836919 198.296875 315.96875 C197.95851624 315.18109253 197.62015747 314.39343506 197.27154541 313.58190918 C195 308.22665583 195 308.22665583 195 306 C140.22 306 85.44 306 29 306 C28.01 308.97 27.02 311.94 26 315 C25.29386201 316.80778825 24.56458193 318.60688843 23.80200195 320.39160156 C23.39284546 321.35386154 22.98368896 322.31612152 22.56213379 323.30754089 C22.12526245 324.32495865 21.68839111 325.3423764 21.23828125 326.390625 C20.77490356 327.47753128 20.31152588 328.56443756 19.83410645 329.6842804 C18.33067746 333.20781296 16.8219505 336.72904322 15.3125 340.25 C14.27355375 342.67824932 13.23473621 345.10655372 12.19604492 347.53491211 C10.11599579 352.39581394 8.03335792 357.25559665 5.94921875 362.11474609 C3.6953854 367.37189632 1.45221262 372.63345532 -0.78361511 377.89828491 C-2.24396183 381.33436076 -3.71060754 384.76771931 -5.17910767 388.20031738 C-5.8462408 389.76309234 -6.51081344 391.32696307 -7.17269897 392.89196777 C-8.08048539 395.03665643 -8.99792395 397.17695364 -9.91796875 399.31640625 C-10.42094482 400.49662354 -10.9239209 401.67684082 -11.44213867 402.89282227 C-13.30305507 406.60444786 -15.19363966 410.09681983 -19 412 C-22.87984253 412.25303321 -25.77364205 412.30454139 -29 410 C-31.728589 405.53442853 -31.112235 401.95139835 -30 397 C-28.70070962 393.18357948 -27.08915778 389.53704744 -25.43359375 385.86328125 C-24.73401047 384.27004532 -24.73401047 384.27004532 -24.02029419 382.6446228 C-22.50354278 379.19568284 -20.97042966 375.75427537 -19.4375 372.3125 C-17.86396342 368.74304439 -16.29497661 365.1716127 -14.72636414 361.59999084 C-13.6735996 359.20335345 -12.61948952 356.80730665 -11.56404114 354.41184998 C-6.78327929 343.550923 -2.14421466 332.63362893 2.4375 321.6875 C3.11725772 320.06615743 3.79702623 318.44481939 4.47680664 316.82348633 C5.98825393 313.21720625 7.4944669 309.60875289 9 306 C7.79516716 306.00999275 7.79516716 306.00999275 6.56599426 306.02018738 C-1.0112443 306.08034997 -8.58836672 306.12600044 -16.16578197 306.15543652 C-20.06122736 306.17107878 -23.95647503 306.19229041 -27.85180664 306.22631836 C-31.61248525 306.25896368 -35.37297394 306.27686385 -39.13378334 306.28463173 C-40.56709087 306.290166 -42.00038826 306.30097321 -43.43361473 306.31719017 C-45.44416503 306.33903055 -47.45490728 306.34022597 -49.46557617 306.34057617 C-50.60919113 306.34723801 -51.75280609 306.35389984 -52.93107605 306.36076355 C-56.41834936 305.95082146 -58.24098813 305.15173943 -61 303 C-62.74699067 300.14090017 -63.24949954 298.01054789 -63.24609566 294.68155289 C-63.25007775 293.82015678 -63.25405985 292.95876067 -63.25816262 292.07126164 C-63.24942409 290.65881519 -63.24942409 290.65881519 -63.24050903 289.21783447 C-63.24221788 288.21394644 -63.24392673 287.21005842 -63.24568737 286.17574954 C-63.24898909 282.80231575 -63.23796722 279.42907961 -63.22705078 276.05566406 C-63.22648682 273.64131169 -63.22680294 271.22695898 -63.22793579 268.81260681 C-63.22839165 263.60974456 -63.22270835 258.40692723 -63.21146011 253.20407867 C-63.19520763 245.68163278 -63.18999737 238.15921114 -63.18748413 230.6367496 C-63.18310663 218.43213572 -63.16979604 206.22754858 -63.15087891 194.02294922 C-63.13252153 182.16715631 -63.11836433 170.31137066 -63.10986328 158.45556641 C-63.10933783 157.72480338 -63.10881239 156.99404036 -63.10827102 156.241133 C-63.10566095 152.57511813 -63.10313353 148.90910321 -63.10064721 145.24308825 C-63.079913 114.82870636 -63.04453733 84.41435689 -63 54 C-63.6705542 54.01571045 -64.3411084 54.0314209 -65.03198242 54.04760742 C-68.0837351 54.11014658 -71.13535268 54.14905063 -74.1875 54.1875 C-75.77014648 54.22520508 -75.77014648 54.22520508 -77.38476562 54.26367188 C-78.91713867 54.27817383 -78.91713867 54.27817383 -80.48046875 54.29296875 C-81.41785889 54.3086792 -82.35524902 54.32438965 -83.32104492 54.34057617 C-87.46988671 53.81313297 -90.0876714 51.9123286 -93 49 C-93.67597339 42.12760392 -93.67597339 42.12760392 -91.44134521 38.39997864 C-88.73510314 35.7395916 -87.34911836 35.41717183 -83.61579895 35.37789917 C-82.55736031 35.40486374 -82.55736031 35.40486374 -81.47753906 35.43237305 C-80.3501255 35.43127785 -80.3501255 35.43127785 -79.19993591 35.43016052 C-76.72109238 35.43363789 -74.24413928 35.47250246 -71.765625 35.51171875 C-70.04499335 35.52104643 -68.32434841 35.52816276 -66.60369873 35.53315735 C-62.07911392 35.55223088 -57.55533407 35.60133422 -53.03106689 35.65667725 C-48.41274912 35.70786238 -43.79430103 35.73066979 -39.17578125 35.75585938 C-30.11683419 35.80945303 -21.05848408 35.89476979 -12 36 C-12.01047363 35.1121582 -12.02094727 34.22431641 -12.03173828 33.30957031 C-12.06587756 30.00713493 -12.09092668 26.70488782 -12.10986328 23.40234375 C-12.11990427 21.97457922 -12.13353981 20.54683517 -12.15087891 19.11914062 C-12.17521152 17.06375059 -12.18650202 15.00863308 -12.1953125 12.953125 C-12.20578613 11.71723633 -12.21625977 10.48134766 -12.22705078 9.20800781 C-12.01122248 6.15856275 -11.677026 4.51218046 -10 2 C-6.77706714 -0.3020949 -3.88003676 -0.47510654 0 0 Z M15 136.9375 C13.7359115 138.20661373 12.47159044 139.47549589 11.20703125 140.74414062 C8.13533276 143.8267632 5.06679992 146.91250428 2 150 C-0.95191226 148.58925744 -2.98414897 147.17556641 -5.3125 144.875 C-8.03257488 142.49931228 -8.96567969 142.0063987 -12.6875 141.3125 C-16.10269585 141.73899982 -16.10269585 141.73899982 -18.4375 144.125 C-20.28190875 147.51871211 -20.42403542 149.18368119 -20 153 C-17.48519761 156.76638228 -14.21925128 159.82580823 -11 163 C-10.28457031 163.71414062 -9.56914062 164.42828125 -8.83203125 165.1640625 C-6.01131014 167.81564946 -3.53002782 169.75707058 0 171.375 C3.44099226 170.94487597 4.13847819 170.26804663 6.64648438 167.99609375 C7.35313232 167.35704102 8.05978027 166.71798828 8.7878418 166.05957031 C14.96323368 160.31013802 20.98200577 154.40481309 26.984375 148.47558594 C28.6687499 146.8180198 30.36024706 145.16766172 32.05859375 143.52441406 C34.524781 141.1370764 36.96743976 138.72775963 39.40625 136.3125 C40.16860962 135.58313232 40.93096924 134.85376465 41.71643066 134.10229492 C45.99040706 129.85151909 45.99040706 129.85151909 47.54101562 124.12890625 C46.95124906 120.71805413 46.65542577 119.22713129 44 117 C33.20543568 112.97849564 22.04369658 129.84482469 15 136.9375 Z M63 123 C61.17769674 125.37691729 60.97563361 126.51267228 61.125 129.5 C62.20084884 132.57385384 63.46681279 133.97345024 66 136 C69.54318401 137.24178581 73.02336064 137.12856909 76.74937439 137.13371277 C77.42713395 137.13597833 78.10489351 137.13824388 78.80319124 137.14057809 C81.07315722 137.1469058 83.3430633 137.14608952 85.61303711 137.14526367 C87.2409625 137.1482559 88.86888717 137.15165858 90.49681091 137.15544128 C94.91826015 137.16427827 99.33969004 137.16661925 103.76114726 137.16725707 C107.45159121 137.16820654 111.14203065 137.17188521 114.83247286 137.17542917 C123.53830129 137.18357232 132.24411937 137.1860135 140.94995117 137.18530273 C149.932901 137.18470173 158.91579081 137.19525836 167.89872545 137.2110464 C175.61007595 137.22411698 183.32140682 137.22948684 191.03276831 137.22884732 C195.63889619 137.22859223 200.24497072 137.23145002 204.85108757 137.24202538 C209.18242381 137.25169842 213.5136556 137.251791 217.8449955 137.24450874 C219.4344943 137.24346196 221.02399957 137.24583132 222.61348724 137.2518692 C224.78366198 137.25957893 226.9534751 137.2549513 229.12364197 137.24723816 C230.94514723 137.24805531 230.94514723 137.24805531 232.80345058 137.24888897 C236.70730543 136.94492795 239.55274754 135.94819989 242.8125 133.8125 C244.76356067 130.83456529 244.42391943 128.45191537 244 125 C241.78136971 122.09282927 240.48055071 121.16018357 237 120 C234.76891093 119.90147278 232.53493851 119.86496641 230.30168152 119.85955811 C229.61731484 119.85658698 228.93294817 119.85361586 228.22784311 119.8505547 C225.92947097 119.84186752 223.63115093 119.84035944 221.33276367 119.83886719 C219.68690377 119.83423903 218.04104495 119.82921437 216.39518738 119.82382202 C211.91989869 119.81069582 207.444625 119.80425263 202.96932006 119.79981136 C200.1736854 119.79688099 197.37805485 119.79277625 194.58242226 119.78830719 C185.83654906 119.77463168 177.09068523 119.76496529 168.34480208 119.7611053 C158.24707269 119.75662427 148.14947865 119.73907452 138.05179042 119.7101047 C130.24787626 119.68849237 122.4440002 119.67840126 114.64005643 119.67706418 C109.97851792 119.67601583 105.31710662 119.67010165 100.65559959 119.65224457 C96.2700682 119.63577164 91.88475975 119.63360457 87.49920845 119.64238358 C85.89077533 119.64315437 84.28233026 119.63880564 82.67392731 119.62892532 C80.47544273 119.61621363 78.27774875 119.62207773 76.07926941 119.63250732 C74.84980685 119.63104076 73.6203443 119.6295742 72.3536253 119.6280632 C68.61842914 120.04231846 66.2049988 121.06999657 63 123 Z M62.83164978 157.84732056 C60.73312483 160.85166213 60.73312483 160.85166213 61 164.1875 C61.99987438 166.99964669 62.61875719 168.25986102 65 170 C67.79783172 170.93261057 69.49692341 171.12940861 72.38925171 171.14044189 C73.28646439 171.14615204 74.18367706 171.15186218 75.108078 171.15774536 C76.08996597 171.15886322 77.07185394 171.15998108 78.08349609 171.16113281 C79.11953476 171.16609772 80.15557343 171.17106262 81.2230072 171.17617798 C84.65649068 171.19080468 88.08992797 171.19760214 91.5234375 171.203125 C93.90613812 171.20887561 96.28883872 171.21463335 98.67153931 171.22039795 C103.6700258 171.23090909 108.6684962 171.23675116 113.66699219 171.24023438 C120.07527996 171.24572223 126.48335558 171.2697562 132.89157677 171.29820633 C137.8140424 171.31681864 142.73645677 171.32203754 147.65895462 171.32357025 C150.02167548 171.3266 152.38439536 171.33463929 154.74708176 171.34775543 C158.050791 171.3647877 161.35397965 171.36294246 164.65771484 171.35644531 C166.12447411 171.37026749 166.12447411 171.37026749 167.62086487 171.3843689 C172.55394119 171.35393972 176.0221608 171.27102246 180 168 C181.74693992 165.61780919 182.02276273 164.45525467 181.875 161.5 C180.71892747 158.19693563 179.87341957 157.07114253 177 155 C173.48633543 154.37762345 169.99650883 154.43331346 166.43579102 154.45068359 C165.36059204 154.44046173 164.28539307 154.43023987 163.1776123 154.41970825 C159.61948451 154.39188252 156.06212999 154.39383191 152.50390625 154.3984375 C150.03295096 154.39066561 147.56199833 154.38199669 145.09104919 154.37246704 C139.91013938 154.35753553 134.72950212 154.35813023 129.54858398 154.36865234 C122.90569522 154.38024481 116.26392117 154.34637761 109.62121677 154.299963 C104.51768967 154.27051488 99.41443189 154.26874113 94.31083488 154.27498245 C91.86157968 154.27395473 89.41230965 154.26345491 86.96313667 154.24335861 C83.53921976 154.21871233 80.11748488 154.23215845 76.69360352 154.25537109 C75.17309639 154.23243988 75.17309639 154.23243988 73.62187195 154.20904541 C67.51757983 154.28494704 67.51757983 154.28494704 62.83164978 157.84732056 Z M12.875 227.0625 C11.71638288 228.22614753 10.5575301 229.38956046 9.3984375 230.55273438 C6.59624236 233.36580065 3.79722686 236.18199374 1 239 C-0.12568772 238.0411714 -1.25052474 237.08134399 -2.375 236.12109375 C-3.00148438 235.58669678 -3.62796875 235.0522998 -4.2734375 234.50170898 C-5.54885379 233.39239258 -6.78592551 232.23863466 -8 231.0625 C-11.23403128 229.34442088 -13.56599155 230.06345224 -17 231 C-19.45291885 233.13641319 -19.90757462 234.59332831 -20.625 237.75 C-19.6581822 242.77745254 -16.53183716 245.44247675 -13 249 C-12.20851563 249.81726563 -11.41703125 250.63453125 -10.6015625 251.4765625 C-5.77597259 256.81334985 -5.77597259 256.81334985 0.625 259.5 C4.31143783 258.95386106 5.03728183 258.38772298 7.69946289 255.97192383 C8.40257599 255.33421051 9.10568909 254.69649719 9.83010864 254.03945923 C13.34382893 250.7369486 16.77889659 247.36377159 20.18359375 243.94921875 C20.92456802 243.2092012 21.6655423 242.46918365 22.42897034 241.70674133 C23.97885859 240.1575284 25.52750558 238.60707273 27.07495117 237.05541992 C29.45182249 234.67314495 31.83404646 232.29631503 34.21679688 229.91992188 C35.72688365 228.4091751 37.23666062 226.89811859 38.74609375 225.38671875 C39.45954453 224.67529221 40.1729953 223.96386566 40.9080658 223.23088074 C41.5628743 222.57292007 42.2176828 221.91495941 42.89233398 221.23706055 C43.46999008 220.65860886 44.04764618 220.08015717 44.64280701 219.48417664 C46.81326313 217.11064518 47.00738282 215.92026556 47.3125 212.625 C47.28581203 209.0297535 47.28581203 209.0297535 45.4375 206.5625 C34.276654 199.40811154 20.33062014 219.54977757 12.875 227.0625 Z M62 213 C60.83789781 215.39351495 60.83789781 215.39351495 61 218 C62.62155629 221.48634601 63.76453292 222.84302194 67 225 C70.14965178 225.3066287 70.14965178 225.3066287 73.81893921 225.26069641 C74.51626211 225.26452196 75.21358501 225.26834751 75.9320389 225.27228898 C78.27426745 225.28262752 80.61625125 225.27862526 82.95849609 225.2746582 C84.63553597 225.27900425 86.31257385 225.28418704 87.98960876 225.29014587 C92.54956106 225.3035597 97.1094306 225.30411183 101.66939878 225.30158257 C105.47412239 225.30051433 109.27882914 225.30539255 113.08354914 225.310188 C122.05929292 225.32129174 131.03499486 225.32171592 140.01074219 225.31567383 C149.27374771 225.30963425 158.53660133 225.32194264 167.79958093 225.3432439 C175.74870822 225.36085241 183.69778712 225.36686238 191.6469332 225.36360615 C196.39617835 225.36179172 201.14531518 225.36444528 205.89454269 225.37832069 C210.3613403 225.39088198 214.827901 225.38897108 219.2946949 225.37590981 C220.93418139 225.37354064 222.57368445 225.37629087 224.21315193 225.38453293 C226.45140834 225.39497381 228.68886594 225.3869218 230.92709351 225.3742218 C232.17960089 225.37438954 233.43210827 225.37455729 234.72257042 225.37473011 C238.27637493 224.96840023 240.16452761 224.14168616 243 222 C244.44430855 219.11138291 244.37688506 217.20352299 244 214 C241.40265344 210.67820636 239.90405042 209.17226318 235.71253967 208.37358761 C234.45525558 208.3730013 233.1979715 208.37241499 231.90258789 208.37181091 C231.19947259 208.36471653 230.49635729 208.35762214 229.77193546 208.35031277 C227.42161557 208.33274439 225.07295209 208.35082947 222.72265625 208.36889648 C221.03546394 208.36375717 219.348277 208.3564758 217.66110229 208.34721375 C213.08249421 208.32869291 208.50446814 208.34164249 203.92588425 208.36130404 C199.1342577 208.37768627 194.34266814 208.36887824 189.55102539 208.36378479 C181.50429993 208.35926336 173.45780688 208.37513675 165.41113281 208.40307617 C156.10825242 208.43512831 146.80579121 208.43511251 137.50288105 208.4178614 C128.55353349 208.40199726 119.60433961 208.40872915 110.65499878 208.42579842 C106.84646514 208.43267077 103.03805462 208.43163457 99.22952271 208.42425346 C94.74453561 208.41659193 90.26002553 208.42871229 85.77511978 208.45610237 C84.12919658 208.4629887 82.48322886 208.4630815 80.83730698 208.45588684 C78.59014316 208.44719596 76.34445274 208.46313954 74.09741211 208.4853363 C72.84012802 208.48814322 71.58284393 208.49095015 70.28746033 208.49384212 C66.4045251 209.09168303 64.7520577 210.24629862 62 213 Z M63 246 C61.25306008 248.38219081 60.97723727 249.54474533 61.125 252.5 C62.28107253 255.80306437 63.12658043 256.92885747 66 259 C69.51366457 259.62237655 73.00349117 259.56668654 76.56420898 259.54931641 C78.17700745 259.5646492 78.17700745 259.5646492 79.8223877 259.58029175 C83.38051549 259.60811748 86.93787001 259.60616809 90.49609375 259.6015625 C92.96704904 259.60933439 95.43800167 259.61800331 97.90895081 259.62753296 C103.08986062 259.64246447 108.27049788 259.64186977 113.45141602 259.63134766 C120.09430478 259.61975519 126.73607883 259.65362239 133.37878323 259.700037 C138.48231033 259.72948512 143.58556811 259.73125887 148.68916512 259.72501755 C151.13842032 259.72604527 153.58769035 259.73654509 156.03686333 259.75664139 C159.46078024 259.78128767 162.88251512 259.76784155 166.30639648 259.74462891 C167.82690361 259.76756012 167.82690361 259.76756012 169.37812805 259.79095459 C174.37509182 259.79577191 174.37509182 259.79577191 178.76896858 257.72660446 C181.1522836 255.0460211 182 253.41972112 182 249.8125 C181.00012562 247.00035331 180.38124281 245.74013898 178 244 C175.20216828 243.06738943 173.50307659 242.87059139 170.61074829 242.85955811 C169.71353561 242.85384796 168.81632294 242.84813782 167.891922 242.84225464 C166.91003403 242.84113678 165.92814606 242.84001892 164.91650391 242.83886719 C163.88046524 242.83390228 162.84442657 242.82893738 161.7769928 242.82382202 C158.34350932 242.80919532 154.91007203 242.80239786 151.4765625 242.796875 C149.09386188 242.79112439 146.71116128 242.78536665 144.32846069 242.77960205 C139.3299742 242.76909091 134.3315038 242.76324884 129.33300781 242.75976562 C122.92472004 242.75427777 116.51664442 242.7302438 110.10842323 242.70179367 C105.1859576 242.68318136 100.26354323 242.67796246 95.34104538 242.67642975 C92.97832452 242.6734 90.61560464 242.66536071 88.25291824 242.65224457 C84.949209 242.6352123 81.64602035 242.63705754 78.34228516 242.64355469 C76.87552589 242.62973251 76.87552589 242.62973251 75.37913513 242.6156311 C70.44605881 242.64606028 66.9778392 242.72897754 63 246 Z " fill="#2B78C1" transform="translate(144,50)"/>
<path d="M0 0 C2.69990662 1.79993774 4.5418865 3.083773 6 6 C6 15.9 6 25.8 6 36 C75.96 36 145.92 36 218 36 C218 26.1 218 16.2 218 6 C222 1 222 1 224 0 C227.87984253 -0.25303321 230.77364205 -0.30454139 234 2 C236.37755774 5.56157515 236.23091541 8.7519818 236.1953125 12.953125 C236.19106766 13.94345734 236.19106766 13.94345734 236.18673706 14.95379639 C236.17558415 17.05271897 236.15048946 19.15120742 236.125 21.25 C236.11496384 22.67707715 236.1058391 24.10416102 236.09765625 25.53125 C236.07566111 29.02097328 236.04116536 32.51044423 236 36 C236.94103073 35.98889694 237.88206146 35.97779388 238.85160828 35.96635437 C247.72377793 35.86495693 256.59582989 35.79002455 265.46844769 35.74093914 C270.02991082 35.71485512 274.59090587 35.67947938 279.15209961 35.62280273 C283.55470689 35.56843957 287.95686423 35.53857047 292.35978127 35.52561378 C294.03874609 35.51638155 295.71768653 35.49835268 297.39645958 35.47134972 C299.75011599 35.43500006 302.1019182 35.43005681 304.45581055 35.43237305 C305.1484903 35.41439667 305.84117004 35.39642029 306.55484009 35.37789917 C310.40880396 35.4188825 311.90908469 35.92545054 314.9322052 38.40437317 C316.96559328 40.95681051 317.66999049 41.88204597 317.5625 45.0625 C317 49 317 49 315.1875 51.4375 C311.31476778 54.2037373 308.0924921 54.12661254 303.46034431 54.13142776 C302.78978478 54.1334804 302.11922526 54.13553303 301.42834574 54.13764787 C299.16527584 54.14333455 296.90226649 54.14185857 294.63919067 54.14044189 C293.00674331 54.14302457 291.37429658 54.14603745 289.74185073 54.1494453 C285.24325546 54.15752991 280.74467612 54.15930568 276.24607444 54.16004276 C271.39935612 54.16189075 266.55264613 54.16943675 261.70593262 54.17617798 C251.10280805 54.18977165 240.49968726 54.19578748 229.89655542 54.20018864 C223.27969819 54.20294901 216.66284242 54.20718595 210.04598618 54.21169281 C191.73622542 54.22388625 173.42646585 54.23418579 155.11670113 54.2375679 C153.94439024 54.23778747 152.77207936 54.23800703 151.56424391 54.23823325 C149.8015072 54.23856067 149.8015072 54.23856067 148.00315964 54.2388947 C145.62173533 54.23933817 143.24031103 54.23978473 140.85888672 54.24023438 C139.08697363 54.24056652 139.08697363 54.24056652 137.27926432 54.24090537 C118.12896394 54.24485524 98.97870157 54.26231468 79.82841589 54.2855939 C60.18076964 54.30928554 40.53314248 54.32176873 20.88548172 54.32293582 C9.84848008 54.32385375 -1.18847203 54.32963582 -12.22546005 54.34775543 C-21.62174827 54.36312685 -31.01797164 54.36829438 -40.41427003 54.36001733 C-45.21079031 54.35610046 -50.00717989 54.35709081 -54.80368423 54.37107468 C-59.19187245 54.38375149 -63.57983093 54.38267119 -67.96801855 54.37048396 C-69.55818445 54.36851614 -71.14836629 54.37165513 -72.73850976 54.38032833 C-74.8955086 54.39135145 -77.05168667 54.38398293 -79.20866203 54.3719368 C-81.00780581 54.37283243 -81.00780581 54.37283243 -82.84329593 54.37374616 C-87.30119702 53.84594141 -89.86984889 52.13015111 -93 49 C-93.67597339 42.12760392 -93.67597339 42.12760392 -91.44134521 38.39997864 C-88.73510314 35.7395916 -87.34911836 35.41717183 -83.61579895 35.37789917 C-82.55736031 35.40486374 -82.55736031 35.40486374 -81.47753906 35.43237305 C-80.3501255 35.43127785 -80.3501255 35.43127785 -79.19993591 35.43016052 C-76.72109238 35.43363789 -74.24413928 35.47250246 -71.765625 35.51171875 C-70.04499335 35.52104643 -68.32434841 35.52816276 -66.60369873 35.53315735 C-62.07911392 35.55223088 -57.55533407 35.60133422 -53.03106689 35.65667725 C-48.41274912 35.70786238 -43.79430103 35.73066979 -39.17578125 35.75585938 C-30.11683419 35.80945303 -21.05848408 35.89476979 -12 36 C-12.01047363 35.1121582 -12.02094727 34.22431641 -12.03173828 33.30957031 C-12.06587756 30.00713493 -12.09092668 26.70488782 -12.10986328 23.40234375 C-12.11990427 21.97457922 -12.13353981 20.54683517 -12.15087891 19.11914062 C-12.17521152 17.06375059 -12.18650202 15.00863308 -12.1953125 12.953125 C-12.20578613 11.71723633 -12.21625977 10.48134766 -12.22705078 9.20800781 C-12.01122248 6.15856275 -11.677026 4.51218046 -10 2 C-6.77706714 -0.3020949 -3.88003676 -0.47510654 0 0 Z " fill="#3A4550" transform="translate(144,50)"/>
<path d="M0 0 C6.27 0 12.54 0 19 0 C23.79227369 10.15013298 28.36660713 20.3555052 32.75 30.6875 C34.04652776 33.74028727 35.34467069 36.79238027 36.64453125 39.84375 C36.98513077 40.64350754 37.32573029 41.44326508 37.676651 42.26725769 C40.03408629 47.78504568 42.43800864 53.28095544 44.86611938 58.76799011 C46.63129674 62.75789384 48.38594867 66.75239435 50.14050293 70.74697876 C51.00047242 72.69668136 51.86557477 74.64412859 52.73596191 76.58920288 C53.96105594 79.32851666 55.16772856 82.07530449 56.37109375 84.82421875 C56.923097 86.03936157 56.923097 86.03936157 57.48625183 87.27905273 C59.72198289 92.44679187 60.54201672 96.36094888 60 102 C58.12984906 104.43119623 56.71861655 105.64069173 54 107 C50.58592396 107.37934178 48.61370177 107.35140183 45.60546875 105.62890625 C41.82782309 101.81727877 40.19645844 97.5305283 38.125 92.625 C37.63741211 91.50029297 37.14982422 90.37558594 36.64746094 89.21679688 C35.12583409 85.70106351 33.62586146 82.17634364 32.12780762 78.6505127 C30.86402302 75.68043423 29.59497748 72.71263644 28.32519531 69.74511719 C22.40174788 55.90093029 16.49416927 42.05006043 10.62304688 28.18359375 C8.93257088 24.19164879 7.23078687 20.20489493 5.51757812 16.22265625 C5.1400238 15.34001099 4.76246948 14.45736572 4.37347412 13.54797363 C3.67709851 11.92008361 2.97672031 10.29389748 2.27154541 8.6697998 C0 3.33873596 0 3.33873596 0 0 Z " fill="#3A4550" transform="translate(339,355)"/>
<path d="M0 0 C1.18613892 0.00785522 1.18613892 0.00785522 2.39624023 0.01586914 C3.67724609 0.02070313 3.67724609 0.02070313 4.98413086 0.02563477 C5.88196289 0.03401367 6.77979492 0.04239258 7.70483398 0.05102539 C8.6065332 0.05553711 9.50823242 0.06004883 10.43725586 0.06469727 C12.67234712 0.07652315 14.90730835 0.09300319 17.14233398 0.11352539 C16.57180325 6.18646571 14.08704367 11.30686031 11.64624023 16.81665039 C11.1855011 17.87188904 10.72476196 18.92712769 10.25006104 20.01434326 C8.74122706 23.46684113 7.22316996 26.91519706 5.70483398 30.36352539 C3.60331675 35.15928178 1.50575653 39.95676598 -0.59204102 44.75415039 C-1.1202092 45.96010864 -1.64837738 47.16606689 -2.19255066 48.40856934 C-5.59222014 56.18099606 -8.94237367 63.97266617 -12.24829102 71.78540039 C-12.66099747 72.75874329 -13.07370392 73.73208618 -13.49891663 74.73492432 C-15.06276836 78.42442091 -16.6263983 82.11391334 -18.17477417 85.80993652 C-19.22241432 88.30990671 -20.27938141 90.80574602 -21.33813477 93.30102539 C-21.63822449 94.02570007 -21.93831421 94.75037476 -22.24749756 95.49700928 C-24.19796101 100.06490067 -26.23510507 104.80224492 -30.85766602 107.11352539 C-34.73750854 107.3665586 -37.63130807 107.41806678 -40.85766602 105.11352539 C-43.58625502 100.64795392 -42.96990102 97.06492374 -41.85766602 92.11352539 C-40.55837556 88.29710463 -38.9468153 84.6505767 -37.29125977 80.97680664 C-36.82491623 79.91469467 -36.35857269 78.8525827 -35.87809753 77.75828552 C-34.36137261 74.30926605 -32.82824519 70.86780216 -31.29516602 67.42602539 C-29.72059547 63.85550912 -28.15049185 60.28305248 -26.58087158 56.71035767 C-25.52762992 54.31327087 -24.47306218 51.91676629 -23.41717529 49.52084351 C-18.29061837 37.87376767 -13.34878033 26.15259791 -8.459198 14.40444946 C-7.81700171 12.8615756 -7.17401911 11.3190287 -6.53010559 9.77687073 C-5.95873254 8.40792632 -5.38956107 7.03806003 -4.82304382 5.667099 C-2.52266832 0.15416491 -2.52266832 0.15416491 0 0 Z " fill="#3A4651" transform="translate(155.857666015625,354.886474609375)"/>
</svg>
